<svg xmlns="http://www.w3.org/2000/svg" width="500" height="500" version="1.0" viewBox="0 0 375 375"><path fill="#09b" d="M139.61 276.084h-2.078c-.524-1.781-1.23-3.281-2.125-4.5-.899-1.219-1.688-1.953-2.375-2.203-1.024-.363-1.887-.602-2.594-.719a11.55 11.55 0 0 0-2.281-.156c-.813.023-1.934.031-3.36.031V291.334c0 1.781.02 3.57.063 5.36.04 1.78.14 3.355.297 4.718.164 1.367.39 2.266.672 2.703.445.7.926 1.153 1.437 1.36.508.199 1.11.328 1.797.39.688.055 1.477.184 2.375.391v1.89c-1.18-.163-2.715-.296-4.61-.39a179.725 179.725 0 0 0-6-.219 99.742 99.742 0 0 0-6.062.063c-1.93.086-3.523.226-4.781.422l.062-1.829c1.508-.039 2.598-.19 3.266-.453.664-.27 1.383-.847 2.156-1.734.25-.29.442-.91.578-1.86.145-.956.25-2.124.313-3.5.062-1.382.102-2.816.125-4.296.02-1.489.04-2.899.062-4.235.02-1.343.032-2.441.032-3.297v-18.343c-1.43 0-2.602-.008-3.516-.032-.906-.02-1.75.024-2.531.125-.774.106-1.664.34-2.672.704-.73.28-1.543 1.03-2.438 2.25-.898 1.218-1.59 2.703-2.078 4.453h-2.062c.238-1.914.39-3.614.453-5.094a82.62 82.62 0 0 0 .031-5.094h37.36a102.794 102.794 0 0 0 0 5.156c.039 1.524.203 3.235.484 5.141ZM181.962 296.506c-.211 1.95-.399 3.523-.563 4.719-.156 1.199-.277 2.289-.36 3.265-.085.97-.124 2.149-.124 3.532h-7.5c-2.23 0-4.688.007-7.375.03-2.68.02-5.352.032-8.016.032h-7.343c-2.23 0-4.04-.012-5.422-.031-1.375-.024-2.063-.031-2.063-.031v-1.829c1.176-.039 2.242-.222 3.203-.546a5.66 5.66 0 0 0 2.47-1.641c.237-.29.429-.992.577-2.11a50.22 50.22 0 0 0 .328-3.921c.082-1.508.125-3.004.125-4.485v-8.203c0-1.176-.011-2.586-.03-4.234-.024-1.645-.075-3.29-.157-4.938a61.128 61.128 0 0 0-.328-4.312c-.149-1.238-.34-2.024-.578-2.36-.493-.644-1.079-1.066-1.766-1.265a8.142 8.142 0 0 0-2.078-.344 64.493 64.493 0 0 0-1.766-.031v-1.953h36.563c-.043.98-.055 1.789-.032 2.422.02.625.063 1.257.125 1.89.063.625.141 1.387.235 2.281l.406 3.532h-2.125c-.574-1.582-1.117-2.79-1.625-3.625-.512-.832-1.012-1.422-1.5-1.766-.48-.351-.934-.598-1.36-.734-.429-.145-.843-.317-1.25-.516a43.369 43.369 0 0 0-1.218-.25c-.45-.082-1.121-.156-2.016-.219-.898-.062-2.199-.117-3.906-.172-1.7-.062-4.012-.093-6.937-.093v15.718h1.062c.719 0 1.602-.007 2.656-.03 1.051-.02 2.125-.063 3.22-.126 1.1-.062 2.05-.14 2.843-.234.789-.102 1.27-.258 1.437-.469 1.176-1.289 1.907-2.363 2.188-3.219.281-.851.484-1.664.61-2.437H174.585c.04 0 .052.367.032 1.094-.023.73-.062 1.664-.125 2.796a355.77 355.77 0 0 1-.219 3.594 48.788 48.788 0 0 0 .032 3.938c.062 1.281.132 2.351.218 3.203.082.855.102 1.32.063 1.39-.211.043-.64.055-1.297.032-.649-.02-.969-.032-.969-.032-.074-.52-.14-1.082-.203-1.687-.062-.613-.266-1.266-.61-1.953-.343-.695-.984-1.39-1.921-2.078-.242-.207-.778-.36-1.61-.453a51.99 51.99 0 0 0-5.922-.344h-3.5v17.922c2.883 0 5.258-.063 7.126-.188 1.875-.125 3.378-.265 4.515-.422 1.133-.164 2.004-.328 2.61-.484.613-.164 1.125-.29 1.53-.375.571-.281 1.204-.602 1.891-.969.688-.363 1.344-1.015 1.97-1.953.632-.937 1.155-2.398 1.562-4.39ZM224.85 300.834c0 .043-.355.469-1.062 1.281-.71.813-1.777 1.75-3.203 2.813-1.418 1.055-3.215 1.976-5.39 2.765-2.18.79-4.727 1.188-7.641 1.188-2.562 0-5.094-.398-7.594-1.188-2.5-.789-4.777-2.062-6.828-3.812-2.055-1.75-3.7-4.016-4.937-6.797-1.243-2.781-1.86-6.16-1.86-10.14 0-3.583.598-6.735 1.797-9.454 1.195-2.718 2.832-5.007 4.906-6.875a21.197 21.197 0 0 1 6.985-4.234 22.718 22.718 0 0 1 7.953-1.438c1.906 0 3.61.172 5.11.516 1.507.344 2.788.7 3.843 1.063 1.063.367 1.813.546 2.25.546.125 0 .379-.023.766-.078.382-.062.8-.242 1.25-.547.445-.312.754-.812.922-1.5h1.328l.562 14.375h-1.719c-.523-2.226-1.367-4.242-2.53-6.046a12.5 12.5 0 0 0-4.516-4.266c-1.844-1.04-4.063-1.504-6.657-1.39-1.992.042-3.586.327-4.781.859a8.783 8.783 0 0 0-3.078 2.25c-.774.898-1.465 2.027-2.078 3.39-.606 1.356-1.086 3.059-1.438 5.11-.343 2.054-.515 4.625-.515 7.718 0 4.543.578 8.22 1.734 11.032 1.164 2.804 2.703 4.836 4.61 6.093 1.906 1.25 3.976 1.875 6.218 1.875 1.945 0 3.68-.257 5.203-.78 1.52-.532 2.836-1.173 3.953-1.923 1.125-.75 2.07-1.5 2.844-2.25.77-.757 1.399-1.379 1.89-1.859ZM276.591 267.553c-1.261.125-2.25.242-2.968.344-.711.105-1.258.277-1.64.515-.388.242-.743.649-1.063 1.219-.243.45-.434 1.215-.579 2.297-.148 1.074-.25 2.336-.312 3.781-.055 1.438-.09 2.899-.11 4.375-.023 1.48-.03 2.852-.03 4.11v2.984a141.732 141.732 0 0 0-.063 4.578c0 1.742.02 3.465.062 5.172.04 1.71.149 3.215.328 4.515.188 1.305.442 2.157.766 2.563.645.773 1.223 1.273 1.734 1.5a4.186 4.186 0 0 0 1.672.328c.614 0 1.348.102 2.203.297v1.89c-1.18-.124-2.714-.234-4.609-.328a179.725 179.725 0 0 0-6-.218 98.328 98.328 0 0 0-6.031.062c-1.906.086-3.492.227-4.75.422v-1.89c1.457-.04 2.55-.211 3.281-.516.738-.3 1.453-.86 2.14-1.672.196-.25.368-.848.516-1.797.145-.957.254-2.113.328-3.469.083-1.363.145-2.773.188-4.234.04-1.469.062-2.86.062-4.172 0-1.32-.023-2.41-.062-3.266H244.17c0 .524-.024 1.391-.063 2.61a117.62 117.62 0 0 0-.062 4.094c0 1.5.039 2.984.125 4.453.082 1.46.203 2.734.359 3.828.164 1.094.41 1.824.734 2.187.645.782 1.223 1.278 1.735 1.485.508.199 1.054.308 1.64.328.594.012 1.336.12 2.235.328v1.89c-1.18-.163-2.715-.296-4.61-.39a179.725 179.725 0 0 0-6-.219 99.534 99.534 0 0 0-6.062.063c-1.93.086-3.524.226-4.781.422v-1.829c1.02-.039 1.812-.128 2.375-.265a4.807 4.807 0 0 0 1.53-.672c.446-.313.974-.727 1.579-1.25.238-.25.441-.848.61-1.797.163-.957.273-2.113.327-3.469.063-1.363.102-2.785.125-4.265.02-1.489.032-2.895.032-4.219V284.896c0-1.113-.012-2.453-.032-4.015-.023-1.57-.074-3.148-.156-4.734a49.068 49.068 0 0 0-.36-4.204c-.155-1.218-.382-2.05-.671-2.5-.492-.77-1.043-1.242-1.656-1.421a5.826 5.826 0 0 0-1.907-.25 12 12 0 0 1-1.984-.094v-1.828c.488.086 1.363.156 2.625.218 1.258.063 2.742.118 4.453.157 1.707.043 3.473.054 5.297.031 1.832-.02 3.563-.063 5.188-.125 1.625-.063 2.984-.156 4.078-.281v1.953c-1.305.086-2.282.168-2.938.25-.648.074-1.14.203-1.484.39-.344.188-.7.543-1.063 1.063-.324.492-.57 1.289-.734 2.39a40.476 40.476 0 0 0-.375 3.75 81.05 81.05 0 0 0-.11 4.297v4.063h17.547c0-1.133-.011-2.453-.03-3.953-.024-1.5-.075-2.988-.157-4.469-.074-1.488-.203-2.789-.39-3.906-.188-1.125-.423-1.89-.704-2.297-.492-.727-1.043-1.191-1.656-1.39a5.21 5.21 0 0 0-1.86-.282 12.196 12.196 0 0 1-1.968-.094v-1.765c.488.086 1.363.156 2.625.218 1.258.063 2.738.118 4.437.157 1.707.043 3.473.054 5.297.031 1.832-.02 3.57-.063 5.219-.125 1.645-.063 3-.156 4.062-.281ZM176.698 162.307c0 6.211-1.617 11.445-4.843 15.703-3.219 4.262-7.45 7.657-12.688 10.188-5.242 2.531-10.914 4.312-17.015 5.344-6.094 1.039-12.016 1.39-17.766 1.046-4.606-.343-8.719-1.007-12.344-1.984-3.625-.977-6.824-1.926-9.594-2.844-2.761-.926-5.058-1.39-6.89-1.39-1.844 0-3.059.605-3.64 1.812-.575 1.211-.86 2.563-.86 4.063h-5l-.094-3.016c-.055-2.02-.168-4.437-.344-7.25-.168-2.82-.422-5.383-.765-7.687a99.468 99.468 0 0 0-1.563-8.813 870.204 870.204 0 0 0-1.812-8.016c-.524-2.25-.782-3.375-.782-3.375h5.016c.914 2.075 2.238 4.868 3.969 8.375 1.726 3.512 4.031 7.055 6.906 10.625 2.875 3.563 6.383 6.586 10.531 9.063 4.145 2.469 9.035 3.762 14.672 3.875 4.832.117 9.406-.863 13.719-2.938 4.32-2.07 7.863-4.718 10.625-7.937 2.758-3.227 4.195-6.453 4.312-9.672.114-3.687-.953-7.05-3.203-10.094-2.242-3.05-6.007-6.242-11.297-9.578-5.293-3.344-12.543-7.258-21.75-11.75-9.21-4.375-16.32-9.176-21.328-14.406-5-5.238-7.328-12.234-6.984-20.984.227-5.864 2.008-11.067 5.344-15.61 3.343-4.55 7.804-8.148 13.39-10.797 5.582-2.656 12-3.984 19.25-3.984 4.25 0 8.504.465 12.766 1.39 4.258.918 8.144 1.868 11.656 2.844 3.508.98 6.242 1.469 8.203 1.469 1.727 0 2.938-.457 3.625-1.375.688-.926 1.055-1.937 1.11-3.031.062-1.094.093-1.985.093-2.672h4.844s.024 1.012.078 3.031c.063 2.012.149 4.43.266 7.25.113 2.813.285 5.43.516 7.844.226 2.762.597 5.812 1.109 9.156.52 3.336 1.008 6.211 1.469 8.625l.703 3.625h-5.016c-2.648-8.05-6.156-14.406-10.531-19.062-4.367-4.664-9.2-8.004-14.5-10.016a45.613 45.613 0 0 0-16.39-3.031c-3.118 0-5.97.898-8.563 2.687-2.586 1.782-4.594 4.028-6.031 6.735-1.438 2.699-2.157 5.484-2.157 8.359 0 4.031 1.149 7.402 3.453 10.11 2.301 2.699 5.235 4.968 8.797 6.812a124.806 124.806 0 0 0 11.22 5.094c3.913 1.554 7.487 3.195 10.718 4.922 3.101 1.73 6.664 3.746 10.687 6.046 4.032 2.305 7.914 5.063 11.657 8.282 3.738 3.218 6.847 7.047 9.328 11.484 2.476 4.43 3.718 9.578 3.718 15.453Zm0 0"/><path fill="#09b" d="m301.365 124.967-2.422.094c-1.617.055-3.547.309-5.797.766-2.242.46-4.399 1.293-6.469 2.5-2.062 1.21-3.558 2.906-4.484 5.094a2081.098 2081.098 0 0 1-5.86 13.812c-2.418 5.637-5.07 11.824-7.953 18.563a7396.87 7396.87 0 0 1-8.89 20.718 4345.683 4345.683 0 0 0-8.813 20.547 5118.788 5118.788 0 0 1-7.594 17.781c-2.242 5.23-4.023 9.371-5.343 12.422-1.325 3.051-1.985 4.578-1.985 4.578H226.6s-.664-1.78-1.984-5.343c-1.325-3.57-3.11-8.32-5.36-14.25a4560.78 4560.78 0 0 0-7.5-19.672 4192.432 4192.432 0 0 0-8.453-21.844 2815.482 2815.482 0 0 0-8.203-20.812c-2.594-6.5-4.84-11.961-6.734-16.391-1.899-4.438-3.25-7.29-4.063-8.563-1.95-3.101-4.308-5.488-7.078-7.156-2.762-1.664-7.074-2.555-12.937-2.672v-5.187l3.53.172 8.891.437c3.57.168 7.196.309 10.875.422 3.688.117 6.797.172 9.329.172 2.3 0 5.148-.055 8.546-.172 3.395-.113 6.758-.195 10.094-.25 3.344-.062 6.133-.148 8.375-.266l3.375-.171v5.015c-5.418 0-9.308.719-11.672 2.156-2.355 1.438-3.418 3.711-3.187 6.813.238 2.762 1.304 6.906 3.203 12.437 1.894 5.524 4.254 11.883 7.078 19.079 2.82 7.187 5.813 14.667 8.969 22.437a1073.378 1073.378 0 0 1 8.89 22.531c2.301-5.875 4.72-12.062 7.25-18.562 2.54-6.5 5.079-12.942 7.61-19.328 2.531-6.395 4.8-12.32 6.812-17.782 2.008-5.468 3.617-10.097 4.828-13.89 1.207-3.801 1.813-6.336 1.813-7.61-.117-3.218-1.266-5.43-3.453-6.64-2.18-1.207-6.32-1.867-12.422-1.985v-5.015l2.75.172c1.844.117 4.176.23 7 .343 2.82.118 5.672.23 8.547.344 2.875.117 5.347.172 7.422.172 2.644 0 5.75-.082 9.312-.25 3.57-.176 6.68-.348 9.328-.516 2.657-.175 3.985-.265 3.985-.265ZM39.39 85.393c0-10.32 1.114-18.77 3.344-25.344 2.239-6.582 5.82-11.75 10.75-15.5 4.926-3.757 11.266-6.398 19.016-7.921 7.75-1.532 17.023-2.297 27.828-2.297v2.812C88.816 39.73 80.422 43.78 75.141 49.3c-5.282 5.524-7.922 13.684-7.922 24.485v63.734c0 13.856-2.469 24.422-7.406 31.703-4.93 7.274-14.434 12.086-28.516 14.438v.703c14.082 2.586 23.586 7.516 28.516 14.797 4.937 7.273 7.406 17.836 7.406 31.687v64.094c0 11.031 2.875 19.129 8.625 24.297 5.75 5.164 13.91 9.16 24.484 11.984v2.813c-10.805 0-20.078-.766-27.828-2.297-7.75-1.524-14.09-4.164-19.016-7.922-4.93-3.75-8.511-8.918-10.75-15.5-2.23-6.574-3.343-15.023-3.343-25.344V221.69c0-11.738-2.407-20.305-7.22-25.703-4.812-5.406-13.437-9.399-25.874-11.984 6.101-1.165 11.266-2.63 15.484-4.391 4.227-1.77 7.633-4.063 10.219-6.875 2.582-2.813 4.457-6.332 5.625-10.563 1.176-4.226 1.766-9.394 1.766-15.5Zm0 0"/><path fill="#09b" d="M277.306 34.691c10.8 0 20.07.766 27.812 2.297 7.75 1.524 14.086 4.164 19.016 7.922 4.926 3.75 8.504 8.914 10.734 15.484 2.227 6.575 3.344 15.024 3.344 25.344v61.25c0 11.73 2.406 20.297 7.219 25.703 4.812 5.399 13.437 9.387 25.875 11.969-6.106 1.168-11.273 2.633-15.5 4.39-4.219 1.762-7.621 4.055-10.203 6.876-2.586 2.812-4.465 6.336-5.64 10.562-1.169 4.219-1.75 9.383-1.75 15.484v61.25c0 10.32-1.118 18.77-3.345 25.344-2.23 6.57-5.808 11.735-10.734 15.485-4.93 3.75-11.266 6.382-19.016 7.906-7.742 1.531-17.011 2.297-27.812 2.297v-2.813c11.5-2.586 19.89-6.637 25.172-12.156 5.281-5.512 7.922-13.664 7.922-24.453v-63.719c0-7.039.523-13.14 1.578-18.297 1.062-5.164 3-9.625 5.812-13.375 2.82-3.758 6.52-6.812 11.094-9.156 4.57-2.344 10.379-4.102 17.422-5.281v-.703c-14.086-2.582-23.59-7.508-28.516-14.782-4.93-7.28-7.39-17.843-7.39-31.687V73.769c0-11.03-2.875-19.125-8.625-24.28-5.75-5.165-13.907-9.161-24.469-11.985Zm0 0"/></svg>