<?xml version="1.0" encoding="UTF-8"?>
<svg xmlns="http://www.w3.org/2000/svg" xmlns:xlink="http://www.w3.org/1999/xlink" width="500" viewBox="0 0 500 500" height="500" preserveAspectRatio="xMidYMid meet" version="1.2" baseProfile="tiny-ps">
  <defs>
    <g/>
    <clipPath id="909e903b88">
      <rect x="0" width="108" y="0" height="119"/>
    </clipPath>
    <clipPath id="c948ce89f7">
      <path d="M 0.960938 0.441406 L 90 0.441406 L 90 264.921875 L 0.960938 264.921875 Z M 0.960938 0.441406 " clip-rule="nonzero"/>
    </clipPath>
    <clipPath id="e23cfccf13">
      <rect x="0" width="90" y="0" height="265"/>
    </clipPath>
    <clipPath id="783c03b4c0">
      <path d="M 196 0.441406 L 283.921875 0.441406 L 283.921875 264.921875 L 196 264.921875 Z M 196 0.441406 " clip-rule="nonzero"/>
    </clipPath>
    <clipPath id="5e8cf86aa1">
      <rect x="0" width="88" y="0" height="265"/>
    </clipPath>
    <clipPath id="54d406476b">
      <rect x="0" width="284" y="0" height="265"/>
    </clipPath>
  </defs>
  <rect x="-37.5" width="450" fill="#ffffff" y="-37.499999" height="449.999989" fill-opacity="1"/>
  <rect x="-37.5" width="450" fill="#ffffff" y="-37.499999" height="449.999989" fill-opacity="1"/>
  <g transform="matrix(1, 0, 0, 1, 48, 73)">
    <g clip-path="url(#54d406476b)">
      <g fill="#0399bb" fill-opacity="1">
        <g transform="translate(76.475423, 205.076629)">
          <g>
            <path d="M 29.09375 -23.78125 L 27.546875 -23.78125 C 27.160156 -25.113281 26.632812 -26.234375 25.96875 -27.140625 C 25.300781 -28.046875 24.707031 -28.59375 24.1875 -28.78125 C 23.4375 -29.050781 22.796875 -29.226562 22.265625 -29.3125 C 21.734375 -29.40625 21.164062 -29.441406 20.5625 -29.421875 C 19.957031 -29.410156 19.125 -29.40625 18.0625 -29.40625 C 18.0625 -29.40625 18.0625 -29.101562 18.0625 -28.5 C 18.0625 -27.894531 18.0625 -27.109375 18.0625 -26.140625 C 18.0625 -25.171875 18.0625 -24.132812 18.0625 -23.03125 C 18.0625 -21.925781 18.0625 -20.867188 18.0625 -19.859375 C 18.0625 -18.847656 18.0625 -17.984375 18.0625 -17.265625 C 18.0625 -16.554688 18.0625 -16.113281 18.0625 -15.9375 C 18.0625 -14.9375 18.0625 -13.769531 18.0625 -12.4375 C 18.0625 -11.101562 18.078125 -9.769531 18.109375 -8.4375 C 18.140625 -7.113281 18.210938 -5.941406 18.328125 -4.921875 C 18.453125 -3.910156 18.625 -3.238281 18.84375 -2.90625 C 19.175781 -2.394531 19.53125 -2.0625 19.90625 -1.90625 C 20.28125 -1.75 20.722656 -1.648438 21.234375 -1.609375 C 21.753906 -1.566406 22.347656 -1.46875 23.015625 -1.3125 L 23.015625 0.09375 C 22.140625 -0.03125 20.992188 -0.128906 19.578125 -0.203125 C 18.171875 -0.273438 16.679688 -0.328125 15.109375 -0.359375 C 13.535156 -0.390625 12.03125 -0.375 10.59375 -0.3125 C 9.15625 -0.257812 7.96875 -0.15625 7.03125 0 L 7.078125 -1.359375 C 8.203125 -1.390625 9.015625 -1.503906 9.515625 -1.703125 C 10.015625 -1.898438 10.550781 -2.332031 11.125 -3 C 11.300781 -3.207031 11.441406 -3.664062 11.546875 -4.375 C 11.648438 -5.09375 11.722656 -5.960938 11.765625 -6.984375 C 11.816406 -8.015625 11.847656 -9.082031 11.859375 -10.1875 C 11.878906 -11.289062 11.894531 -12.34375 11.90625 -13.34375 C 11.925781 -14.34375 11.9375 -15.160156 11.9375 -15.796875 C 11.9375 -15.972656 11.9375 -16.414062 11.9375 -17.125 C 11.9375 -17.84375 11.9375 -18.722656 11.9375 -19.765625 C 11.9375 -20.804688 11.9375 -21.882812 11.9375 -23 C 11.9375 -24.125 11.9375 -25.171875 11.9375 -26.140625 C 11.9375 -27.109375 11.9375 -27.898438 11.9375 -28.515625 C 11.9375 -29.140625 11.9375 -29.453125 11.9375 -29.453125 C 10.875 -29.453125 10.003906 -29.457031 9.328125 -29.46875 C 8.648438 -29.488281 8.019531 -29.460938 7.4375 -29.390625 C 6.863281 -29.316406 6.203125 -29.144531 5.453125 -28.875 C 4.898438 -28.65625 4.289062 -28.09375 3.625 -27.1875 C 2.957031 -26.28125 2.445312 -25.175781 2.09375 -23.875 L 0.546875 -23.875 C 0.722656 -25.300781 0.832031 -26.566406 0.875 -27.671875 C 0.925781 -28.773438 0.9375 -30.035156 0.90625 -31.453125 C 1.363281 -31.453125 2.203125 -31.453125 3.421875 -31.453125 C 4.648438 -31.453125 6.109375 -31.453125 7.796875 -31.453125 C 9.492188 -31.453125 11.285156 -31.453125 13.171875 -31.453125 C 15.066406 -31.453125 16.929688 -31.453125 18.765625 -31.453125 C 20.597656 -31.453125 22.265625 -31.453125 23.765625 -31.453125 C 25.265625 -31.453125 26.46875 -31.453125 27.375 -31.453125 C 28.28125 -31.453125 28.734375 -31.453125 28.734375 -31.453125 C 28.703125 -30.035156 28.703125 -28.757812 28.734375 -27.625 C 28.765625 -26.488281 28.882812 -25.207031 29.09375 -23.78125 Z M 29.09375 -23.78125 "/>
          </g>
        </g>
      </g>
      <g fill="#0399bb" fill-opacity="1">
        <g transform="translate(106.118614, 205.076629)">
          <g>
            <path d="M 31 -8.578125 C 30.851562 -7.128906 30.71875 -5.957031 30.59375 -5.0625 C 30.46875 -4.164062 30.375 -3.351562 30.3125 -2.625 C 30.257812 -1.90625 30.234375 -1.03125 30.234375 0 C 30.203125 0 29.675781 0 28.65625 0 C 27.644531 0 26.304688 0 24.640625 0 C 22.984375 0 21.15625 0.00390625 19.15625 0.015625 C 17.15625 0.0351562 15.164062 0.046875 13.1875 0.046875 C 11.207031 0.046875 9.382812 0.046875 7.71875 0.046875 C 6.050781 0.046875 4.703125 0.0351562 3.671875 0.015625 C 2.648438 0.00390625 2.140625 0 2.140625 0 L 2.140625 -1.359375 C 3.015625 -1.390625 3.804688 -1.523438 4.515625 -1.765625 C 5.222656 -2.015625 5.835938 -2.425781 6.359375 -3 C 6.535156 -3.207031 6.675781 -3.726562 6.78125 -4.5625 C 6.882812 -5.394531 6.96875 -6.367188 7.03125 -7.484375 C 7.09375 -8.609375 7.125 -9.722656 7.125 -10.828125 C 7.125 -11.929688 7.125 -12.898438 7.125 -13.734375 C 7.125 -14.566406 7.125 -15.085938 7.125 -15.296875 C 7.125 -15.503906 7.125 -16.046875 7.125 -16.921875 C 7.125 -17.804688 7.113281 -18.859375 7.09375 -20.078125 C 7.082031 -21.304688 7.046875 -22.53125 6.984375 -23.75 C 6.929688 -24.976562 6.847656 -26.054688 6.734375 -26.984375 C 6.628906 -27.910156 6.488281 -28.492188 6.3125 -28.734375 C 5.945312 -29.210938 5.503906 -29.523438 4.984375 -29.671875 C 4.472656 -29.828125 3.957031 -29.910156 3.4375 -29.921875 C 2.925781 -29.941406 2.492188 -29.953125 2.140625 -29.953125 L 2.140625 -31.40625 C 2.140625 -31.40625 2.628906 -31.40625 3.609375 -31.40625 C 4.585938 -31.40625 5.882812 -31.40625 7.5 -31.40625 C 9.125 -31.40625 10.90625 -31.40625 12.84375 -31.40625 C 14.78125 -31.40625 16.71875 -31.40625 18.65625 -31.40625 C 20.59375 -31.40625 22.367188 -31.40625 23.984375 -31.40625 C 25.609375 -31.40625 26.910156 -31.40625 27.890625 -31.40625 C 28.878906 -31.40625 29.375 -31.40625 29.375 -31.40625 C 29.34375 -30.6875 29.332031 -30.085938 29.34375 -29.609375 C 29.363281 -29.140625 29.394531 -28.671875 29.4375 -28.203125 C 29.476562 -27.734375 29.535156 -27.164062 29.609375 -26.5 C 29.691406 -25.84375 29.789062 -24.96875 29.90625 -23.875 L 28.328125 -23.875 C 27.898438 -25.050781 27.492188 -25.945312 27.109375 -26.5625 C 26.734375 -27.1875 26.363281 -27.628906 26 -27.890625 C 25.644531 -28.148438 25.304688 -28.332031 24.984375 -28.4375 C 24.671875 -28.539062 24.363281 -28.671875 24.0625 -28.828125 C 23.789062 -28.878906 23.488281 -28.9375 23.15625 -29 C 22.820312 -29.0625 22.320312 -29.113281 21.65625 -29.15625 C 20.988281 -29.207031 20.019531 -29.253906 18.75 -29.296875 C 17.476562 -29.347656 15.753906 -29.375 13.578125 -29.375 C 13.578125 -29.375 13.578125 -28.816406 13.578125 -27.703125 C 13.578125 -26.597656 13.578125 -25.160156 13.578125 -23.390625 C 13.578125 -21.628906 13.578125 -19.71875 13.578125 -17.65625 C 13.578125 -17.65625 13.835938 -17.65625 14.359375 -17.65625 C 14.890625 -17.65625 15.546875 -17.660156 16.328125 -17.671875 C 17.117188 -17.691406 17.921875 -17.722656 18.734375 -17.765625 C 19.554688 -17.816406 20.257812 -17.878906 20.84375 -17.953125 C 21.4375 -18.023438 21.796875 -18.140625 21.921875 -18.296875 C 22.796875 -19.265625 23.335938 -20.066406 23.546875 -20.703125 C 23.765625 -21.335938 23.921875 -21.941406 24.015625 -22.515625 C 24.015625 -22.515625 24.132812 -22.515625 24.375 -22.515625 C 24.613281 -22.515625 24.863281 -22.515625 25.125 -22.515625 C 25.382812 -22.515625 25.515625 -22.515625 25.515625 -22.515625 C 25.546875 -22.515625 25.550781 -22.238281 25.53125 -21.6875 C 25.519531 -21.144531 25.488281 -20.453125 25.4375 -19.609375 C 25.394531 -18.765625 25.34375 -17.875 25.28125 -16.9375 C 25.25 -15.9375 25.253906 -14.957031 25.296875 -14 C 25.347656 -13.050781 25.40625 -12.257812 25.46875 -11.625 C 25.53125 -10.988281 25.546875 -10.640625 25.515625 -10.578125 C 25.359375 -10.546875 25.035156 -10.535156 24.546875 -10.546875 C 24.066406 -10.566406 23.828125 -10.578125 23.828125 -10.578125 C 23.765625 -10.972656 23.710938 -11.394531 23.671875 -11.84375 C 23.628906 -12.300781 23.476562 -12.785156 23.21875 -13.296875 C 22.957031 -13.816406 22.476562 -14.332031 21.78125 -14.84375 C 21.601562 -14.988281 21.203125 -15.097656 20.578125 -15.171875 C 19.960938 -15.253906 19.257812 -15.316406 18.46875 -15.359375 C 17.6875 -15.410156 16.921875 -15.4375 16.171875 -15.4375 C 15.429688 -15.4375 14.8125 -15.4375 14.3125 -15.4375 C 13.820312 -15.4375 13.578125 -15.4375 13.578125 -15.4375 C 13.578125 -13.769531 13.578125 -12.148438 13.578125 -10.578125 C 13.578125 -9.003906 13.578125 -7.582031 13.578125 -6.3125 C 13.578125 -5.039062 13.578125 -4.023438 13.578125 -3.265625 C 13.578125 -2.515625 13.578125 -2.125 13.578125 -2.09375 C 15.722656 -2.09375 17.488281 -2.132812 18.875 -2.21875 C 20.269531 -2.3125 21.390625 -2.414062 22.234375 -2.53125 C 23.085938 -2.65625 23.738281 -2.78125 24.1875 -2.90625 C 24.644531 -3.03125 25.023438 -3.117188 25.328125 -3.171875 C 25.753906 -3.390625 26.222656 -3.632812 26.734375 -3.90625 C 27.242188 -4.175781 27.734375 -4.660156 28.203125 -5.359375 C 28.671875 -6.054688 29.0625 -7.144531 29.375 -8.625 Z M 31 -8.578125 "/>
          </g>
        </g>
      </g>
      <g fill="#0399bb" fill-opacity="1">
        <g transform="translate(138.303947, 205.076629)">
          <g>
            <path d="M 30.78125 -5.359375 C 30.78125 -5.328125 30.515625 -5.007812 29.984375 -4.40625 C 29.453125 -3.800781 28.65625 -3.101562 27.59375 -2.3125 C 26.539062 -1.53125 25.203125 -0.84375 23.578125 -0.25 C 21.960938 0.34375 20.066406 0.640625 17.890625 0.640625 C 15.984375 0.640625 14.097656 0.34375 12.234375 -0.25 C 10.367188 -0.84375 8.671875 -1.785156 7.140625 -3.078125 C 5.617188 -4.378906 4.394531 -6.066406 3.46875 -8.140625 C 2.550781 -10.210938 2.09375 -12.734375 2.09375 -15.703125 C 2.09375 -18.367188 2.535156 -20.710938 3.421875 -22.734375 C 4.316406 -24.765625 5.535156 -26.472656 7.078125 -27.859375 C 8.617188 -29.253906 10.347656 -30.304688 12.265625 -31.015625 C 14.191406 -31.734375 16.171875 -32.09375 18.203125 -32.09375 C 19.617188 -32.09375 20.882812 -31.960938 22 -31.703125 C 23.125 -31.441406 24.078125 -31.175781 24.859375 -30.90625 C 25.648438 -30.632812 26.210938 -30.5 26.546875 -30.5 C 26.640625 -30.5 26.828125 -30.519531 27.109375 -30.5625 C 27.398438 -30.613281 27.710938 -30.75 28.046875 -30.96875 C 28.378906 -31.195312 28.609375 -31.570312 28.734375 -32.09375 L 29.734375 -32.09375 L 30.140625 -21.375 L 28.875 -21.375 C 28.476562 -23.039062 27.847656 -24.546875 26.984375 -25.890625 C 26.117188 -27.242188 25 -28.304688 23.625 -29.078125 C 22.25 -29.847656 20.59375 -30.1875 18.65625 -30.09375 C 17.175781 -30.0625 15.988281 -29.847656 15.09375 -29.453125 C 14.195312 -29.066406 13.429688 -28.507812 12.796875 -27.78125 C 12.222656 -27.113281 11.707031 -26.269531 11.25 -25.25 C 10.800781 -24.238281 10.445312 -22.96875 10.1875 -21.4375 C 9.925781 -19.914062 9.796875 -18.003906 9.796875 -15.703125 C 9.796875 -12.316406 10.226562 -9.578125 11.09375 -7.484375 C 11.957031 -5.398438 13.097656 -3.890625 14.515625 -2.953125 C 15.941406 -2.015625 17.488281 -1.546875 19.15625 -1.546875 C 20.601562 -1.546875 21.894531 -1.738281 23.03125 -2.125 C 24.164062 -2.519531 25.148438 -3 25.984375 -3.5625 C 26.816406 -4.125 27.519531 -4.679688 28.09375 -5.234375 C 28.664062 -5.796875 29.132812 -6.257812 29.5 -6.625 Z M 30.78125 -5.359375 "/>
          </g>
        </g>
      </g>
      <g fill="#0399bb" fill-opacity="1">
        <g transform="translate(170.716262, 205.076629)">
          <g>
            <path d="M 36.90625 -30.140625 C 35.96875 -30.046875 35.234375 -29.960938 34.703125 -29.890625 C 34.171875 -29.816406 33.757812 -29.6875 33.46875 -29.5 C 33.1875 -29.320312 32.925781 -29.019531 32.6875 -28.59375 C 32.5 -28.257812 32.351562 -27.691406 32.25 -26.890625 C 32.144531 -26.085938 32.066406 -25.148438 32.015625 -24.078125 C 31.972656 -23.003906 31.941406 -21.914062 31.921875 -20.8125 C 31.910156 -19.707031 31.90625 -18.6875 31.90625 -17.75 C 31.90625 -16.8125 31.90625 -16.070312 31.90625 -15.53125 C 31.875 -14.5625 31.859375 -13.425781 31.859375 -12.125 C 31.859375 -10.820312 31.875 -9.535156 31.90625 -8.265625 C 31.9375 -6.992188 32.019531 -5.875 32.15625 -4.90625 C 32.289062 -3.9375 32.484375 -3.300781 32.734375 -3 C 33.210938 -2.425781 33.640625 -2.054688 34.015625 -1.890625 C 34.398438 -1.722656 34.816406 -1.640625 35.265625 -1.640625 C 35.722656 -1.640625 36.269531 -1.5625 36.90625 -1.40625 L 36.90625 0 C 36.03125 -0.09375 34.882812 -0.175781 33.46875 -0.25 C 32.0625 -0.320312 30.570312 -0.375 29 -0.40625 C 27.425781 -0.4375 25.925781 -0.421875 24.5 -0.359375 C 23.082031 -0.296875 21.90625 -0.191406 20.96875 -0.046875 L 20.96875 -1.453125 C 22.0625 -1.484375 22.878906 -1.609375 23.421875 -1.828125 C 23.960938 -2.054688 24.492188 -2.476562 25.015625 -3.09375 C 25.160156 -3.269531 25.285156 -3.710938 25.390625 -4.421875 C 25.503906 -5.140625 25.585938 -6.003906 25.640625 -7.015625 C 25.703125 -8.023438 25.75 -9.070312 25.78125 -10.15625 C 25.8125 -11.25 25.828125 -12.285156 25.828125 -13.265625 C 25.828125 -14.253906 25.8125 -15.066406 25.78125 -15.703125 L 12.75 -15.703125 C 12.75 -15.304688 12.734375 -14.65625 12.703125 -13.75 C 12.671875 -12.84375 12.65625 -11.828125 12.65625 -10.703125 C 12.65625 -9.585938 12.6875 -8.484375 12.75 -7.390625 C 12.8125 -6.304688 12.898438 -5.351562 13.015625 -4.53125 C 13.140625 -3.71875 13.328125 -3.175781 13.578125 -2.90625 C 14.054688 -2.332031 14.484375 -1.96875 14.859375 -1.8125 C 15.242188 -1.664062 15.65625 -1.582031 16.09375 -1.5625 C 16.53125 -1.550781 17.082031 -1.46875 17.75 -1.3125 L 17.75 0.09375 C 16.875 -0.03125 15.726562 -0.128906 14.3125 -0.203125 C 12.90625 -0.273438 11.414062 -0.328125 9.84375 -0.359375 C 8.269531 -0.390625 6.765625 -0.375 5.328125 -0.3125 C 3.890625 -0.257812 2.703125 -0.15625 1.765625 0 L 1.765625 -1.359375 C 2.523438 -1.390625 3.113281 -1.457031 3.53125 -1.5625 C 3.957031 -1.664062 4.335938 -1.832031 4.671875 -2.0625 C 5.003906 -2.289062 5.398438 -2.601562 5.859375 -3 C 6.035156 -3.175781 6.179688 -3.617188 6.296875 -4.328125 C 6.421875 -5.046875 6.503906 -5.910156 6.546875 -6.921875 C 6.597656 -7.929688 6.628906 -8.988281 6.640625 -10.09375 C 6.660156 -11.195312 6.671875 -12.238281 6.671875 -13.21875 C 6.671875 -14.207031 6.671875 -15.019531 6.671875 -15.65625 C 6.671875 -15.875 6.671875 -16.394531 6.671875 -17.21875 C 6.671875 -18.050781 6.660156 -19.050781 6.640625 -20.21875 C 6.628906 -21.382812 6.59375 -22.554688 6.53125 -23.734375 C 6.476562 -24.921875 6.390625 -25.96875 6.265625 -26.875 C 6.140625 -27.78125 5.972656 -28.398438 5.765625 -28.734375 C 5.398438 -29.304688 4.988281 -29.660156 4.53125 -29.796875 C 4.082031 -29.929688 3.609375 -29.988281 3.109375 -29.96875 C 2.609375 -29.957031 2.117188 -29.984375 1.640625 -30.046875 L 1.640625 -31.40625 C 1.992188 -31.34375 2.640625 -31.289062 3.578125 -31.25 C 4.523438 -31.207031 5.632812 -31.171875 6.90625 -31.140625 C 8.175781 -31.109375 9.488281 -31.097656 10.84375 -31.109375 C 12.207031 -31.128906 13.492188 -31.160156 14.703125 -31.203125 C 15.910156 -31.253906 16.925781 -31.320312 17.75 -31.40625 L 17.75 -29.953125 C 16.78125 -29.890625 16.050781 -29.828125 15.5625 -29.765625 C 15.082031 -29.710938 14.710938 -29.617188 14.453125 -29.484375 C 14.203125 -29.347656 13.9375 -29.082031 13.65625 -28.6875 C 13.414062 -28.320312 13.234375 -27.726562 13.109375 -26.90625 C 12.992188 -26.09375 12.90625 -25.164062 12.84375 -24.125 C 12.78125 -23.082031 12.75 -22.015625 12.75 -20.921875 C 12.75 -19.835938 12.75 -18.828125 12.75 -17.890625 L 25.828125 -17.890625 C 25.828125 -18.734375 25.816406 -19.710938 25.796875 -20.828125 C 25.785156 -21.953125 25.75 -23.066406 25.6875 -24.171875 C 25.625 -25.273438 25.523438 -26.242188 25.390625 -27.078125 C 25.253906 -27.910156 25.082031 -28.476562 24.875 -28.78125 C 24.507812 -29.320312 24.097656 -29.664062 23.640625 -29.8125 C 23.191406 -29.96875 22.734375 -30.035156 22.265625 -30.015625 C 21.796875 -30.003906 21.300781 -30.03125 20.78125 -30.09375 L 20.78125 -31.40625 C 21.144531 -31.34375 21.796875 -31.289062 22.734375 -31.25 C 23.671875 -31.207031 24.773438 -31.171875 26.046875 -31.140625 C 27.316406 -31.109375 28.632812 -31.097656 30 -31.109375 C 31.363281 -31.128906 32.65625 -31.160156 33.875 -31.203125 C 35.101562 -31.253906 36.113281 -31.320312 36.90625 -31.40625 Z M 36.90625 -30.140625 "/>
          </g>
        </g>
      </g>
      <g fill="#0399bb" fill-opacity="1">
        <g transform="translate(55.518258, 118.068672)">
          <g>
            <path d="M 77.6875 -22.125 C 77.6875 -17.488281 76.484375 -13.582031 74.078125 -10.40625 C 71.679688 -7.238281 68.53125 -4.710938 64.625 -2.828125 C 60.726562 -0.941406 56.503906 0.382812 51.953125 1.15625 C 47.410156 1.925781 43 2.179688 38.71875 1.921875 C 35.28125 1.671875 32.210938 1.179688 29.515625 0.453125 C 26.816406 -0.273438 24.4375 -0.984375 22.375 -1.671875 C 20.320312 -2.359375 18.609375 -2.703125 17.234375 -2.703125 C 15.859375 -2.703125 14.957031 -2.25 14.53125 -1.34375 C 14.101562 -0.445312 13.890625 0.554688 13.890625 1.671875 L 10.15625 1.671875 C 10.15625 1.671875 10.132812 0.921875 10.09375 -0.578125 C 10.050781 -2.078125 9.960938 -3.875 9.828125 -5.96875 C 9.703125 -8.070312 9.515625 -9.984375 9.265625 -11.703125 C 9.003906 -13.765625 8.613281 -15.953125 8.09375 -18.265625 C 7.582031 -20.578125 7.132812 -22.566406 6.75 -24.234375 C 6.363281 -25.910156 6.171875 -26.75 6.171875 -26.75 L 9.90625 -26.75 C 10.59375 -25.207031 11.578125 -23.128906 12.859375 -20.515625 C 14.148438 -17.898438 15.863281 -15.257812 18 -12.59375 C 20.144531 -9.9375 22.757812 -7.6875 25.84375 -5.84375 C 28.9375 -4.007812 32.582031 -3.046875 36.78125 -2.953125 C 40.382812 -2.867188 43.789062 -3.597656 47 -5.140625 C 50.21875 -6.679688 52.851562 -8.648438 54.90625 -11.046875 C 56.96875 -13.453125 58.039062 -15.859375 58.125 -18.265625 C 58.21875 -21.003906 57.425781 -23.507812 55.75 -25.78125 C 54.082031 -28.050781 51.273438 -30.429688 47.328125 -32.921875 C 43.378906 -35.410156 37.976562 -38.328125 31.125 -41.671875 C 24.257812 -44.929688 18.960938 -48.507812 15.234375 -52.40625 C 11.503906 -56.3125 9.769531 -61.519531 10.03125 -68.03125 C 10.195312 -72.40625 11.523438 -76.285156 14.015625 -79.671875 C 16.503906 -83.054688 19.828125 -85.734375 23.984375 -87.703125 C 28.140625 -89.679688 32.921875 -90.671875 38.328125 -90.671875 C 41.492188 -90.671875 44.660156 -90.328125 47.828125 -89.640625 C 51.003906 -88.953125 53.898438 -88.242188 56.515625 -87.515625 C 59.140625 -86.785156 61.175781 -86.421875 62.625 -86.421875 C 63.914062 -86.421875 64.816406 -86.765625 65.328125 -87.453125 C 65.847656 -88.140625 66.128906 -88.890625 66.171875 -89.703125 C 66.210938 -90.515625 66.234375 -91.179688 66.234375 -91.703125 L 69.828125 -91.703125 C 69.828125 -91.703125 69.847656 -90.953125 69.890625 -89.453125 C 69.941406 -87.953125 70.007812 -86.148438 70.09375 -84.046875 C 70.175781 -81.941406 70.304688 -79.988281 70.484375 -78.1875 C 70.648438 -76.132812 70.925781 -73.863281 71.3125 -71.375 C 71.695312 -68.894531 72.0625 -66.753906 72.40625 -64.953125 C 72.75 -63.148438 72.921875 -62.25 72.921875 -62.25 L 69.1875 -62.25 C 67.21875 -68.25 64.601562 -72.984375 61.34375 -76.453125 C 58.082031 -79.929688 54.476562 -82.421875 50.53125 -83.921875 C 46.59375 -85.421875 42.523438 -86.171875 38.328125 -86.171875 C 36.015625 -86.171875 33.890625 -85.503906 31.953125 -84.171875 C 30.023438 -82.847656 28.523438 -81.175781 27.453125 -79.15625 C 26.378906 -77.144531 25.84375 -75.066406 25.84375 -72.921875 C 25.84375 -69.921875 26.703125 -67.410156 28.421875 -65.390625 C 30.140625 -63.378906 32.328125 -61.6875 34.984375 -60.3125 C 37.640625 -58.945312 40.425781 -57.679688 43.34375 -56.515625 C 46.257812 -55.359375 48.914062 -54.140625 51.3125 -52.859375 C 53.625 -51.566406 56.28125 -50.0625 59.28125 -48.34375 C 62.289062 -46.632812 65.1875 -44.578125 67.96875 -42.171875 C 70.757812 -39.773438 73.078125 -36.925781 74.921875 -33.625 C 76.765625 -30.332031 77.6875 -26.5 77.6875 -22.125 Z M 77.6875 -22.125 "/>
          </g>
        </g>
      </g>
      <g transform="matrix(1, 0, 0, 1, 121, 62)">
        <g clip-path="url(#909e903b88)">
          <g fill="#0399bb" fill-opacity="1">
            <g transform="translate(1.028902, 91.840532)">
              <g>
                <path d="M 104.0625 -85.15625 C 104.0625 -85.15625 103.457031 -85.128906 102.25 -85.078125 C 101.050781 -85.035156 99.613281 -84.84375 97.9375 -84.5 C 96.269531 -84.15625 94.664062 -83.535156 93.125 -82.640625 C 91.582031 -81.742188 90.46875 -80.476562 89.78125 -78.84375 C 88.664062 -76.1875 87.207031 -72.753906 85.40625 -68.546875 C 83.601562 -64.347656 81.628906 -59.738281 79.484375 -54.71875 C 77.347656 -49.707031 75.140625 -44.566406 72.859375 -39.296875 C 70.585938 -34.023438 68.398438 -28.921875 66.296875 -23.984375 C 64.203125 -19.054688 62.316406 -14.640625 60.640625 -10.734375 C 58.972656 -6.835938 57.644531 -3.753906 56.65625 -1.484375 C 55.675781 0.785156 55.1875 1.921875 55.1875 1.921875 L 48.359375 1.921875 C 48.359375 1.921875 47.863281 0.59375 46.875 -2.0625 C 45.894531 -4.71875 44.566406 -8.253906 42.890625 -12.671875 C 41.222656 -17.085938 39.359375 -21.972656 37.296875 -27.328125 C 35.242188 -32.691406 33.144531 -38.113281 31 -43.59375 C 28.851562 -49.082031 26.816406 -54.25 24.890625 -59.09375 C 22.960938 -63.945312 21.289062 -68.023438 19.875 -71.328125 C 18.457031 -74.628906 17.445312 -76.75 16.84375 -77.6875 C 15.382812 -80 13.625 -81.773438 11.5625 -83.015625 C 9.507812 -84.265625 6.296875 -84.929688 1.921875 -85.015625 L 1.921875 -88.875 C 1.921875 -88.875 2.800781 -88.832031 4.5625 -88.75 C 6.320312 -88.664062 8.53125 -88.554688 11.1875 -88.421875 C 13.84375 -88.296875 16.539062 -88.191406 19.28125 -88.109375 C 22.03125 -88.023438 24.347656 -87.984375 26.234375 -87.984375 C 27.953125 -87.984375 30.078125 -88.023438 32.609375 -88.109375 C 35.140625 -88.191406 37.644531 -88.253906 40.125 -88.296875 C 42.613281 -88.335938 44.691406 -88.398438 46.359375 -88.484375 C 48.035156 -88.578125 48.875 -88.625 48.875 -88.625 L 48.875 -84.890625 C 44.84375 -84.890625 41.945312 -84.351562 40.1875 -83.28125 C 38.4375 -82.207031 37.644531 -80.515625 37.8125 -78.203125 C 37.988281 -76.140625 38.78125 -73.050781 40.1875 -68.9375 C 41.601562 -64.820312 43.363281 -60.082031 45.46875 -54.71875 C 47.570312 -49.363281 49.800781 -43.789062 52.15625 -38 C 54.507812 -32.21875 56.71875 -26.625 58.78125 -21.21875 C 60.5 -25.59375 62.300781 -30.203125 64.1875 -35.046875 C 66.070312 -39.890625 67.957031 -44.691406 69.84375 -49.453125 C 71.726562 -54.210938 73.421875 -58.628906 74.921875 -62.703125 C 76.421875 -66.773438 77.617188 -70.222656 78.515625 -73.046875 C 79.421875 -75.878906 79.875 -77.769531 79.875 -78.71875 C 79.789062 -81.113281 78.929688 -82.757812 77.296875 -83.65625 C 75.671875 -84.5625 72.585938 -85.0625 68.046875 -85.15625 L 68.046875 -88.875 C 68.046875 -88.875 68.726562 -88.832031 70.09375 -88.75 C 71.46875 -88.664062 73.207031 -88.578125 75.3125 -88.484375 C 77.414062 -88.398438 79.535156 -88.316406 81.671875 -88.234375 C 83.816406 -88.148438 85.660156 -88.109375 87.203125 -88.109375 C 89.179688 -88.109375 91.5 -88.171875 94.15625 -88.296875 C 96.8125 -88.429688 99.125 -88.5625 101.09375 -88.6875 C 103.070312 -88.8125 104.0625 -88.875 104.0625 -88.875 Z M 104.0625 -85.15625 "/>
              </g>
            </g>
          </g>
        </g>
      </g>
      <g clip-path="url(#c948ce89f7)">
        <g>
          <g clip-path="url(#e23cfccf13)">
            <g fill="#0399bb" fill-opacity="1">
              <g transform="translate(1.008414, 185.098679)">
                <g>
                  <path d="M 29.90625 -145.875 C 29.90625 -153.570312 30.734375 -159.867188 32.390625 -164.765625 C 34.054688 -169.671875 36.726562 -173.519531 40.40625 -176.3125 C 44.082031 -179.113281 48.804688 -181.082031 54.578125 -182.21875 C 60.347656 -183.351562 67.253906 -183.921875 75.296875 -183.921875 L 75.296875 -181.828125 C 66.722656 -179.898438 60.46875 -176.878906 56.53125 -172.765625 C 52.601562 -168.660156 50.640625 -162.582031 50.640625 -154.53125 L 50.640625 -107.046875 C 50.640625 -96.722656 48.800781 -88.847656 45.125 -83.421875 C 41.457031 -78.003906 34.375 -74.421875 23.875 -72.671875 L 23.875 -72.15625 C 34.375 -70.226562 41.457031 -66.550781 45.125 -61.125 C 48.800781 -55.707031 50.640625 -47.835938 50.640625 -37.515625 L 50.640625 10.234375 C 50.640625 18.453125 52.78125 24.484375 57.0625 28.328125 C 61.351562 32.179688 67.429688 35.15625 75.296875 37.25 L 75.296875 39.359375 C 67.253906 39.359375 60.347656 38.789062 54.578125 37.65625 C 48.804688 36.519531 44.082031 34.550781 40.40625 31.75 C 36.726562 28.945312 34.054688 25.097656 32.390625 20.203125 C 30.734375 15.304688 29.90625 9.007812 29.90625 1.3125 L 29.90625 -44.34375 C 29.90625 -53.082031 28.113281 -59.460938 24.53125 -63.484375 C 20.945312 -67.515625 14.519531 -70.492188 5.25 -72.421875 C 9.789062 -73.296875 13.632812 -74.382812 16.78125 -75.6875 C 19.9375 -77 22.472656 -78.703125 24.390625 -80.796875 C 26.316406 -82.898438 27.71875 -85.523438 28.59375 -88.671875 C 29.46875 -91.828125 29.90625 -95.679688 29.90625 -100.234375 Z M 29.90625 -145.875 "/>
                </g>
              </g>
            </g>
          </g>
        </g>
      </g>
      <g clip-path="url(#783c03b4c0)">
        <g transform="matrix(1, 0, 0, 1, 196, 0)">
          <g clip-path="url(#5e8cf86aa1)">
            <g fill="#0399bb" fill-opacity="1">
              <g transform="translate(0.10139, 185.285796)">
                <g>
                  <path d="M 12.0625 -183.84375 C 20.101562 -183.84375 27.007812 -183.269531 32.78125 -182.125 C 38.550781 -180.988281 43.269531 -179.019531 46.9375 -176.21875 C 50.613281 -173.425781 53.28125 -169.582031 54.9375 -164.6875 C 56.601562 -159.789062 57.4375 -153.5 57.4375 -145.8125 L 57.4375 -100.171875 C 57.4375 -91.429688 59.226562 -85.050781 62.8125 -81.03125 C 66.394531 -77.007812 72.816406 -74.039062 82.078125 -72.125 C 77.535156 -71.25 73.691406 -70.15625 70.546875 -68.84375 C 67.398438 -67.53125 64.863281 -65.820312 62.9375 -63.71875 C 61.019531 -61.625 59.625 -59.003906 58.75 -55.859375 C 57.875 -52.710938 57.4375 -48.863281 57.4375 -44.3125 L 57.4375 1.3125 C 57.4375 9 56.601562 15.289062 54.9375 20.1875 C 53.28125 25.082031 50.613281 28.925781 46.9375 31.71875 C 43.269531 34.519531 38.550781 36.488281 32.78125 37.625 C 27.007812 38.769531 20.101562 39.34375 12.0625 39.34375 L 12.0625 37.234375 C 20.625 35.316406 26.875 32.300781 30.8125 28.1875 C 34.75 24.082031 36.71875 18.007812 36.71875 9.96875 L 36.71875 -37.5 C 36.71875 -42.75 37.109375 -47.296875 37.890625 -51.140625 C 38.679688 -54.984375 40.125 -58.300781 42.21875 -61.09375 C 44.320312 -63.894531 47.078125 -66.171875 50.484375 -67.921875 C 53.890625 -69.671875 58.21875 -70.984375 63.46875 -71.859375 L 63.46875 -72.375 C 52.976562 -74.300781 45.894531 -77.972656 42.21875 -83.390625 C 38.550781 -88.816406 36.71875 -96.6875 36.71875 -107 L 36.71875 -154.734375 C 36.71875 -162.941406 34.570312 -168.96875 30.28125 -172.8125 C 26 -176.664062 19.925781 -179.640625 12.0625 -181.734375 Z M 12.0625 -183.84375 "/>
                </g>
              </g>
            </g>
          </g>
        </g>
      </g>
    </g>
  </g>
<title>Title</title></svg>
