<svg width="50" height="50" viewBox="0 0 50 50" fill="none" xmlns="http://www.w3.org/2000/svg">
  <!-- Línea diagonal superior izquierda a inferior derecha -->
  <path d="M16.7678 16.7678C17.7441 15.7915 19.2559 15.7915 20.2322 16.7678L25 21.5355L29.7678 16.7678C30.7441 15.7915 32.2559 15.7915 33.2322 16.7678C34.2085 17.7441 34.2085 19.2559 33.2322 20.2322L28.4645 25L33.2322 29.7678C34.2085 30.7441 34.2085 32.2559 33.2322 33.2322C32.2559 34.2085 30.7441 34.2085 29.7678 33.2322L25 28.4645L20.2322 33.2322C19.2559 34.2085 17.7441 34.2085 16.7678 33.2322C15.7915 32.2559 15.7915 30.7441 16.7678 29.7678L21.5355 25L16.7678 20.2322C15.7915 19.2559 15.7915 17.7441 16.7678 16.7678Z" fill="currentColor"/>
</svg>