<svg xmlns="http://www.w3.org/2000/svg" width="50" height="50" viewBox="0 0 256 256"><path fill="#fff" stroke-miterlimit="10" d="M18.906 7s-6.367.438-10.531 3.781a.466.466 0 0 0-.063.031C7.59 11.48 7.048 12.517 6.375 14c-.672 1.484-1.383 3.395-2.031 5.531C3.05 23.81 2 29.06 2 34a.971.971 0 0 0 .125.5c1.46 2.566 4.148 4.117 6.656 5.094 2.508.976 4.824 1.367 6 1.406.332.012.649-.14.844-.406l2.438-3.375c1.964.465 4.269.781 6.937.781s4.973-.316 6.938-.781l2.437 3.375c.195.265.512.418.844.406 1.176-.04 3.492-.43 6-1.406 2.508-.977 5.195-2.528 6.656-5.094A.971.971 0 0 0 48 34c0-4.941-1.05-10.191-2.344-14.469-.648-2.136-1.36-4.047-2.031-5.531-.672-1.484-1.215-2.52-1.938-3.188a.466.466 0 0 0-.062-.03C37.461 7.436 31.094 7 31.094 7a1.024 1.024 0 0 0-.219 0 1 1 0 0 0-.781.594s-.34.746-.563 1.812C27.582 9.094 25.941 9 25 9c-.941 0-2.582.094-4.531.406a9.503 9.503 0 0 0-.563-1.812 1.002 1.002 0 0 0-1-.594zm-.625 2.156c.074.203.125.395.188.625-2.254.524-4.723 1.38-7.032 2.813a1.004 1.004 0 0 0-.613.898c-.008.39.215.754.567.926.355.168.777.117 1.078-.137C17.102 11.411 22.996 11 25 11c2.004 0 7.898.41 12.531 3.281.301.254.723.305 1.078.137.352-.172.575-.535.567-.926a1.004 1.004 0 0 0-.613-.898c-2.31-1.434-4.778-2.29-7.032-2.813.063-.23.114-.422.188-.625 1.14.14 5.574.739 8.594 3.125.195.18.875 1.18 1.5 2.563.625 1.383 1.28 3.183 1.906 5.25 1.219 4.031 2.203 9.004 2.25 13.562-1.137 1.84-3.27 3.207-5.469 4.063-2 .777-3.867 1.125-4.844 1.218l-1.687-2.28c.86-.278 1.633-.579 2.312-.876 2.524-1.11 3.875-2.281 3.875-2.281a1.007 1.007 0 0 0-1.343-1.5s-1.047.957-3.344 1.969c-.844.37-1.867.738-3.031 1.062-.27-.031-.54.047-.75.219-1.864.453-4.079.75-6.688.75-2.629 0-4.848-.324-6.719-.781a.996.996 0 0 0-.718-.156 22.583 22.583 0 0 1-3.032-1.094C12.234 32.957 11.188 32 11.188 32a.996.996 0 0 0-.844-.25.999.999 0 0 0-.5 1.75s1.351 1.172 3.875 2.281c.68.297 1.453.598 2.312.875l-1.687 2.282c-.977-.094-2.844-.442-4.844-1.22-2.2-.855-4.332-2.222-5.469-4.062.047-4.558 1.032-9.531 2.25-13.562.625-2.067 1.282-3.867 1.907-5.25s1.304-2.383 1.5-2.563c3.02-2.386 7.453-2.984 8.593-3.125zM18.5 21c-2.55 0-4.5 2.316-4.5 5s1.95 5 4.5 5 4.5-2.316 4.5-5-1.95-5-4.5-5zm13 0c-2.55 0-4.5 2.316-4.5 5s1.95 5 4.5 5 4.5-2.316 4.5-5-1.95-5-4.5-5zm-13 2c1.316 0 2.5 1.266 2.5 3s-1.184 3-2.5 3-2.5-1.266-2.5-3 1.184-3 2.5-3zm13 0c1.316 0 2.5 1.266 2.5 3s-1.184 3-2.5 3-2.5-1.266-2.5-3 1.184-3 2.5-3z" font-family="none" font-size="none" font-weight="none" style="mix-blend-mode:normal" text-anchor="none" transform="scale(5.12)"/></svg>
