<svg width="50" height="50" viewBox="0 0 50 50" fill="none" xmlns="http://www.w3.org/2000/svg">
  <!-- Caja principal con bordes redondeados -->
  <path d="M10 14C10 11.7909 11.7909 10 14 10H20C21.1046 10 22 10.8954 22 12C22 13.1046 21.1046 14 20 14H14V36H36V30C36 28.8954 36.8954 28 38 28C39.1046 28 40 28.8954 40 30V36C40 38.2091 38.2091 40 36 40H14C11.7909 40 10 38.2091 10 36V14Z" fill="currentColor"/>
  
  <!-- Flecha externa con extremos redondeados -->
  <path d="M30 10H38C39.1046 10 40 10.8954 40 12V20C40 21.1046 39.1046 22 38 22C36.8954 22 36 21.1046 36 20V17.4142L26.7071 26.7071C25.9226 27.4916 24.6569 27.4916 23.8724 26.7071C23.0879 25.9226 23.0879 24.6569 23.8724 23.8724L33.1593 14.5H30C28.8954 14.5 28 13.6046 28 12.5C28 11.3954 28.8954 10.5 30 10.5V10Z" fill="currentColor"/>
</svg>