<svg xmlns="http://www.w3.org/2000/svg" width="1920" height="720" version="1.0" viewBox="0 0 1440 540"><defs><clipPath id="a"><path d="M0 0h243v342H0z"/></clipPath><clipPath id="b"><path d="M0 0h307v342H0z"/></clipPath></defs><g clip-path="url(#a)" transform="translate(97 65)"><path fill="#09b" d="M222.681 200.54c0 13.243-3.434 24.399-10.297 33.47-6.867 9.062-15.875 16.292-27.031 21.687-11.156 5.398-23.234 9.195-36.234 11.406-12.993 2.207-25.618 2.941-37.875 2.203-9.805-.742-18.57-2.152-26.297-4.234-7.719-2.082-14.524-4.102-20.407-6.063-5.886-1.957-10.789-2.937-14.703-2.937-3.93 0-6.507 1.289-7.734 3.859-1.219 2.574-1.828 5.453-1.828 8.64H29.603l-.188-6.437c-.117-4.289-.359-9.437-.734-15.437-.367-6.008-.914-11.47-1.64-16.375-.743-5.883-1.844-12.133-3.313-18.75a2050.19 2050.19 0 0 0-3.86-17.094c-1.105-4.781-1.656-7.172-1.656-7.172H28.87c1.968 4.406 4.789 10.352 8.468 17.828 3.676 7.48 8.578 15.024 14.703 22.625 6.125 7.594 13.598 14.027 22.422 19.297 8.832 5.273 19.254 8.031 31.266 8.281 10.3.242 20.047-1.844 29.234-6.25 9.196-4.414 16.739-10.054 22.625-16.922 5.883-6.863 8.946-13.726 9.188-20.593.25-7.844-2.016-15.016-6.797-21.516-4.781-6.5-12.813-13.3-24.094-20.406-11.273-7.114-26.715-15.453-46.328-25.016-19.617-9.312-34.758-19.547-45.422-30.703-10.668-11.156-15.633-26.05-14.89-44.688.488-12.5 4.285-23.585 11.39-33.265 7.114-9.688 16.614-17.348 28.5-22.985C81.03 7.35 94.701 4.525 110.15 4.525c9.07 0 18.14.984 27.203 2.953 9.07 1.96 17.348 3.98 24.828 6.062 7.477 2.086 13.3 3.125 17.469 3.125 3.676 0 6.25-.976 7.719-2.937 1.476-1.969 2.273-4.113 2.39-6.438.125-2.332.188-4.234.188-5.703h10.297l.187 6.438c.125 4.293.305 9.445.547 15.453.25 6 .617 11.574 1.11 16.719.488 5.886 1.285 12.386 2.39 19.5 1.102 7.105 2.144 13.234 3.125 18.39.977 5.149 1.469 7.719 1.469 7.719H198.4c-5.637-17.164-13.117-30.71-22.438-40.64-9.312-9.926-19.609-17.036-30.89-21.329-11.274-4.289-22.914-6.437-34.922-6.437-6.625 0-12.7 1.902-18.219 5.703-5.512 3.793-9.797 8.574-12.86 14.344-3.062 5.761-4.593 11.703-4.593 17.828 0 8.586 2.445 15.758 7.344 21.515 4.906 5.762 11.156 10.606 18.75 14.532 7.601 3.918 15.57 7.53 23.906 10.843 8.344 3.313 15.945 6.809 22.812 10.485 6.614 3.68 14.211 7.968 22.797 12.875 8.582 4.898 16.86 10.777 24.828 17.64 7.97 6.868 14.586 15.016 19.86 24.453 5.27 9.438 7.906 20.415 7.906 32.922Zm0 0"/></g><g clip-path="url(#b)" transform="translate(297 65)"><path fill="#09b" d="m298.279 20.337-5.156.188c-3.43.125-7.532.68-12.313 1.656-4.781.98-9.383 2.758-13.797 5.328-4.418 2.574-7.605 6.188-9.562 10.844-3.188 7.605-7.356 17.418-12.5 29.437a48203.283 48203.283 0 0 0-16.922 39.532 15261.054 15261.054 0 0 1-18.938 44.125c-6.5 15.074-12.758 29.664-18.765 43.765-6 14.094-11.391 26.719-16.172 37.875a6678.226 6678.226 0 0 1-11.406 26.485l-4.22 9.734h-19.484s-1.414-3.797-4.234-11.39a5361.16 5361.16 0 0 0-11.406-30.344 10041.14 10041.14 0 0 0-16-41.922 7693.991 7693.991 0 0 0-18.016-46.516A6795.846 6795.846 0 0 0 71.92 94.806c-5.511-13.852-10.293-25.5-14.343-34.938-4.043-9.437-6.922-15.503-8.641-18.203-4.168-6.613-9.195-11.695-15.078-15.25-5.887-3.562-15.078-5.46-27.578-5.703V9.681l7.531.375c5.031.242 11.344.543 18.938.906 7.601.367 15.328.672 23.171.922 7.852.242 14.473.36 19.86.36 4.906 0 10.972-.118 18.203-.36 7.238-.25 14.41-.43 21.516-.547 7.113-.125 13.062-.304 17.843-.547l7.172-.375v10.657c-11.531 0-19.808 1.539-24.828 4.609-5.023 3.062-7.29 7.902-6.797 14.516.488 5.886 2.754 14.714 6.797 26.484 4.04 11.762 9.066 25.305 15.078 40.625a3904.119 3904.119 0 0 0 19.125 47.812 2304.504 2304.504 0 0 1 18.938 48c4.906-12.507 10.05-25.687 15.437-39.53a6970.46 6970.46 0 0 1 16.188-41.188c5.394-13.614 10.238-26.242 14.53-37.89 4.29-11.645 7.724-21.509 10.298-29.595 2.57-8.093 3.86-13.488 3.86-16.187-.25-6.863-2.704-11.582-7.36-14.156-4.656-2.57-13.48-3.985-26.469-4.235V9.681l5.875.375c3.926.242 8.89.484 14.89.734 6.008.243 12.079.485 18.204.735 6.133.242 11.406.36 15.812.36 5.645 0 12.266-.18 19.86-.548 7.601-.375 14.222-.742 19.859-1.11 5.645-.362 8.469-.546 8.469-.546Zm0 0"/></g><path fill="#09b" d="M772.854 200.995h-8.47c-2.167-7.32-5.077-13.472-8.734-18.453-3.656-4.988-6.898-7.984-9.718-8.984-4.157-1.489-7.688-2.485-10.594-2.985-2.906-.5-6.027-.707-9.36-.625-3.324.086-7.89.125-13.703.125v93.25c0 7.313.082 14.625.25 21.938.165 7.312.579 13.758 1.235 19.328.664 5.562 1.582 9.262 2.75 11.094 1.832 2.824 3.785 4.652 5.86 5.484 2.081.836 4.534 1.375 7.359 1.625 2.82.242 6.062.777 9.718 1.61v7.734c-4.824-.664-11.101-1.207-18.828-1.625a722.576 722.576 0 0 0-24.562-.875c-8.637-.164-16.903-.082-24.797.25-7.899.336-14.422.918-19.578 1.75l.25-7.485c6.156-.164 10.601-.785 13.343-1.859 2.739-1.082 5.688-3.453 8.844-7.11 1-1.163 1.79-3.702 2.375-7.609.582-3.906 1-8.68 1.25-14.328.25-5.656.414-11.515.5-17.578.082-6.07.164-11.848.25-17.328.082-5.488.125-9.977.125-13.469v-75.047c-5.824 0-10.605-.039-14.344-.125-3.742-.082-7.187.086-10.343.5-3.157.418-6.813 1.371-10.969 2.86-2.992 1.168-6.313 4.246-9.969 9.234-3.656 4.98-6.484 11.047-8.484 18.203h-8.485c1-7.812 1.625-14.75 1.875-20.812.25-6.07.29-13.016.125-20.828H770.87c-.168 7.812-.168 14.84 0 21.078.164 6.23.828 13.25 1.985 21.062ZM946.152 284.51c-.836 7.981-1.586 14.423-2.25 19.329-.668 4.906-1.168 9.355-1.5 13.344-.336 3.98-.5 8.797-.5 14.453H911.23c-9.136 0-19.187.039-30.156.125a4386.07 4386.07 0 0 1-32.797.125H818.23c-9.136 0-16.53-.043-22.187-.125-5.648-.086-8.469-.125-8.469-.125v-7.485c4.82-.164 9.188-.91 13.094-2.234 3.906-1.332 7.27-3.578 10.094-6.734 1-1.164 1.785-4.032 2.36-8.594.581-4.57 1.038-9.93 1.374-16.078.332-6.156.5-12.266.5-18.328v-33.547c0-4.82-.043-10.598-.125-17.328a553.116 553.116 0 0 0-.625-20.188c-.336-6.738-.793-12.64-1.375-17.703-.574-5.07-1.36-8.273-2.36-9.61-1.991-2.656-4.402-4.398-7.234-5.234a33.515 33.515 0 0 0-8.484-1.375c-2.824-.082-5.23-.125-7.219-.125v-7.968h149.594c-.168 3.992-.211 7.273-.125 9.843.082 2.575.25 5.153.5 7.735.25 2.574.582 5.687 1 9.343.414 3.657.957 8.481 1.625 14.47h-8.734c-2.325-6.489-4.528-11.438-6.61-14.845-2.074-3.406-4.11-5.812-6.11-7.218-1.991-1.414-3.859-2.414-5.609-3a38.648 38.648 0 0 1-5.109-2.125c-1.492-.332-3.152-.66-4.984-.985-1.825-.332-4.57-.625-8.235-.875-3.656-.25-8.976-.5-15.953-.75-6.98-.25-16.453-.375-28.422-.375v64.328h4.36c2.914 0 6.53-.039 10.843-.125 4.32-.082 8.727-.25 13.22-.5 4.487-.25 8.35-.582 11.593-1 3.238-.414 5.191-1.039 5.86-1.875 4.82-5.312 7.812-9.71 8.968-13.203 1.164-3.488 2-6.816 2.5-9.984h8.234c.165 0 .207 1.5.125 4.5-.085 2.992-.25 6.812-.5 11.469-.25 4.648-.543 9.547-.875 14.703a205.66 205.66 0 0 0 .125 16.094c.25 5.23.54 9.59.875 13.078.332 3.492.415 5.402.25 5.734-.835.168-2.585.211-5.25.125-2.656-.082-3.984-.125-3.984-.125-.324-2.156-.61-4.476-.86-6.969-.25-2.5-1.085-5.16-2.5-7.984-1.417-2.832-4.038-5.66-7.859-8.484-.992-.832-3.195-1.457-6.61-1.875-3.405-.414-7.272-.743-11.593-.985-4.312-.25-8.508-.375-12.578-.375H850.402v73.297c11.801 0 21.524-.25 29.172-.75 7.645-.5 13.797-1.078 18.453-1.734 4.657-.664 8.227-1.332 10.72-2 2.487-.664 4.565-1.164 6.233-1.5a415.078 415.078 0 0 0 7.72-3.985c2.831-1.5 5.534-4.16 8.109-7.984 2.582-3.82 4.703-9.805 6.359-17.953ZM1121.68 302.214c0 .168-1.462 1.914-4.376 5.234-2.906 3.325-7.273 7.149-13.093 11.47-5.813 4.323-13.168 8.105-22.063 11.343-8.887 3.238-19.312 4.86-31.281 4.86-10.469 0-20.82-1.622-31.047-4.86-10.219-3.238-19.527-8.43-27.922-15.578-8.398-7.145-15.133-16.41-20.203-27.797-5.063-11.383-7.594-25.223-7.594-41.516 0-14.625 2.445-27.504 7.344-38.64 4.906-11.145 11.598-20.54 20.078-28.188 8.477-7.644 17.992-13.422 28.547-17.328 10.562-3.906 21.41-5.86 32.547-5.86 7.812 0 14.789.712 20.937 2.126 6.157 1.418 11.39 2.875 15.703 4.375 4.32 1.492 7.399 2.234 9.235 2.234.5 0 1.535-.125 3.11-.375 1.581-.25 3.284-.992 5.109-2.234 1.832-1.25 3.082-3.29 3.75-6.125h5.484l2.234 58.843h-6.968c-2.168-9.132-5.622-17.398-10.36-24.797-4.73-7.406-10.875-13.222-18.437-17.453-7.563-4.238-16.668-6.109-27.313-5.609-8.148.156-14.672 1.32-19.578 3.484-4.898 2.157-9.09 5.23-12.578 9.22-3.156 3.655-5.984 8.273-8.484 13.843-2.493 5.562-4.446 12.543-5.86 20.937-1.406 8.399-2.11 18.914-2.11 31.547 0 18.617 2.364 33.656 7.095 45.125 4.738 11.469 11.015 19.781 18.828 24.938 7.812 5.148 16.289 7.718 25.437 7.718 7.977 0 15.082-1.078 21.313-3.234 6.238-2.156 11.64-4.77 16.203-7.844 4.57-3.082 8.437-6.16 11.594-9.234a658.27 658.27 0 0 0 7.734-7.61ZM1333.36 166.089c-5.157.492-9.188.945-12.095 1.36-2.906.417-5.152 1.124-6.734 2.124-1.574 1-3.027 2.664-4.36 4.985-1 1.836-1.792 4.953-2.374 9.36-.575 4.398-.985 9.546-1.235 15.452a622.634 622.634 0 0 0-.5 17.953 1189.93 1189.93 0 0 0-.125 16.828v12.22c-.168 5.312-.25 11.546-.25 18.702 0 7.149.082 14.211.25 21.188.164 6.98.618 13.133 1.36 18.453.75 5.312 1.789 8.805 3.125 10.469 2.656 3.156 5.02 5.195 7.093 6.11 2.082.917 4.368 1.374 6.86 1.374 2.5 0 5.492.414 8.984 1.234v7.735c-4.824-.5-11.101-.957-18.828-1.375a722.576 722.576 0 0 0-24.562-.875c-8.637-.164-16.86-.082-24.672.25-7.813.336-14.297.918-19.453 1.75v-7.735c5.988-.164 10.476-.867 13.468-2.109 2.989-1.25 5.895-3.535 8.72-6.86.831-1 1.538-3.452 2.124-7.359.582-3.906 1.04-8.64 1.375-14.203.332-5.57.582-11.347.75-17.328.164-5.988.25-11.68.25-17.078 0-5.406-.086-9.852-.25-13.344h-71.562c0 2.156-.086 5.73-.25 10.719-.168 4.992-.25 10.562-.25 16.719 0 6.148.164 12.21.5 18.187.332 5.98.828 11.215 1.484 15.703.664 4.493 1.664 7.485 3 8.985 2.656 3.156 5.02 5.152 7.094 5.984 2.082.836 4.328 1.293 6.734 1.375 2.414.074 5.453.527 9.11 1.36v7.734c-4.825-.664-11.102-1.207-18.829-1.625a722.576 722.576 0 0 0-24.562-.875c-8.637-.164-16.903-.082-24.797.25-7.898.336-14.422.918-19.578 1.75v-7.485c4.156-.164 7.394-.535 9.719-1.109 2.332-.582 4.41-1.5 6.234-2.75 1.832-1.25 3.992-2.953 6.484-5.11 1-1 1.832-3.452 2.5-7.359.664-3.906 1.125-8.64 1.375-14.203.25-5.57.414-11.39.5-17.453.082-6.07.125-11.805.125-17.203v-21.938c0-4.57-.043-10.054-.125-16.453a511.835 511.835 0 0 0-.625-19.328c-.336-6.488-.836-12.222-1.5-17.203-.668-4.988-1.578-8.398-2.734-10.234-2-3.157-4.25-5.11-6.75-5.86-2.492-.75-5.106-1.082-7.844-1a51.762 51.762 0 0 1-8.11-.375v-7.468c2 .336 5.571.625 10.72.875 5.156.25 11.222.46 18.203.625 6.988.156 14.222.195 21.703.109 7.476-.082 14.539-.242 21.187-.484 6.645-.25 12.211-.625 16.703-1.125v7.968c-5.312.336-9.304.668-11.968 1-2.657.336-4.696.875-6.11 1.625-1.406.75-2.86 2.203-4.36 4.36-1.335 2-2.335 5.246-3 9.734-.655 4.48-1.151 9.59-1.483 15.328-.336 5.73-.5 11.59-.5 17.578v16.703h71.812c0-4.656-.043-10.054-.125-16.203a449.994 449.994 0 0 0-.625-18.328c-.336-6.07-.875-11.39-1.625-15.953-.75-4.57-1.71-7.691-2.875-9.36-1.992-2.988-4.234-4.898-6.734-5.734a21.624 21.624 0 0 0-7.594-1.125c-2.574.086-5.277-.035-8.11-.359v-7.234c2 .336 5.57.625 10.72.875 5.156.25 11.222.46 18.202.625 6.989.156 14.223.195 21.704.109a854.973 854.973 0 0 0 21.312-.484c6.727-.25 12.254-.625 16.578-1.125Zm0 0"/><path fill="none" stroke="#e77400" stroke-linecap="round" stroke-width="2.2458299999999998" d="M14.914 371.203h1410.173M536.066 349.008v153.418"/><path fill="#09b" d="M50.524 460.505c.476.668.984 1.168 1.515 1.5.54.324 1.305.574 2.297.75.988.18 2.441.36 4.36.547v2.687c-1.555-.176-3.528-.304-5.922-.39-2.399-.094-4.93-.157-7.594-.188a213.233 213.233 0 0 0-7.781.047 232.83 232.83 0 0 0-6.547.219c-1.856.093-3.118.199-3.782.312v-2.687c1.914-.188 3.368-.383 4.36-.594.988-.207 1.738-.473 2.25-.797.508-.332.972-.77 1.39-1.312.301-.414.555-1.36.766-2.829.207-1.468.383-3.25.531-5.343.157-2.094.274-4.258.36-6.5.093-2.25.14-4.364.14-6.344v-7.953c0-1.645-.015-3.602-.047-5.875-.03-2.281-.109-4.57-.234-6.875-.117-2.313-.293-4.363-.531-6.156-.242-1.801-.57-3-.985-3.594-.418-.719-.882-1.238-1.39-1.563-.512-.332-1.262-.554-2.25-.672-.992-.125-2.446-.28-4.36-.468v-2.688h-.078c.657.117 1.91.219 3.766.313 1.851.093 4.035.172 6.547.234 2.52.055 5.129.063 7.828.031 2.695-.03 5.242-.086 7.64-.172 2.395-.093 4.368-.226 5.922-.406v2.688c-1.918.187-3.37.355-4.359.5-.992.148-1.742.37-2.25.672-.5.304-1.023.843-1.562 1.625-.368.53-.653 1.609-.86 3.234-.21 1.617-.375 3.484-.5 5.61a159.571 159.571 0 0 0-.219 6.562c-.03 2.242-.062 4.32-.093 6.234a375.405 375.405 0 0 0-.032 4.5v6.781c0 2.606.055 5.196.172 7.766.125 2.574.305 4.836.547 6.781.238 1.95.567 3.22.985 3.813ZM119.601 418.927h-3.047c-.78-2.633-1.836-4.848-3.156-6.64-1.312-1.802-2.48-2.884-3.5-3.25-1.5-.54-2.777-.9-3.828-1.079a17.474 17.474 0 0 0-3.36-.219c-1.199.031-2.843.047-4.937.047V441.38c0 2.637.031 5.273.094 7.906.062 2.637.21 4.961.453 6.969.238 2 .566 3.328.984 3.984.657 1.024 1.36 1.684 2.11 1.985.75.293 1.629.484 2.64.578 1.02.093 2.192.289 3.516.578v2.781c-1.742-.226-4.008-.414-6.797-.562-2.781-.157-5.73-.266-8.844-.329a139.854 139.854 0 0 0-8.937.094c-2.844.117-5.196.324-7.047.625l.094-2.687c2.218-.063 3.816-.285 4.797-.672.988-.395 2.054-1.25 3.203-2.563.351-.425.632-1.343.843-2.75.207-1.406.352-3.125.438-5.156.094-2.039.156-4.148.187-6.328.032-2.188.063-4.27.094-6.25.031-1.977.047-3.598.047-4.86V407.693c-2.094 0-3.82-.015-5.172-.047a23.353 23.353 0 0 0-3.719.188c-1.136.148-2.453.492-3.953 1.031-1.086.418-2.289 1.528-3.61 3.328-1.312 1.793-2.327 3.977-3.046 6.547h-3.047c.352-2.812.578-5.312.672-7.5.094-2.187.11-4.687.047-7.5H118.882a153.322 153.322 0 0 0 0 7.594c.063 2.242.301 4.773.72 7.594ZM210.868 450.536c0 3.242-.84 5.969-2.516 8.188-1.68 2.21-3.883 3.976-6.61 5.296-2.718 1.313-5.667 2.235-8.843 2.766-3.168.54-6.25.723-9.25.547-2.398-.18-4.539-.523-6.422-1.031a88.048 88.048 0 0 1-4.984-1.485c-1.438-.476-2.637-.718-3.594-.718-.96 0-1.59.32-1.89.953-.294.625-.438 1.328-.438 2.11h-2.61l-.046-1.563c-.032-1.051-.094-2.313-.188-3.782a46.482 46.482 0 0 0-.39-4 48.22 48.22 0 0 0-.813-4.578c-.355-1.625-.668-3.02-.937-4.187-.274-1.164-.407-1.75-.407-1.75h2.61c.476 1.086 1.164 2.539 2.062 4.36.895 1.823 2.094 3.667 3.594 5.53 1.5 1.856 3.328 3.43 5.484 4.72 2.157 1.28 4.696 1.952 7.625 2.015 2.52.062 4.899-.442 7.14-1.516 2.25-1.082 4.095-2.46 5.532-4.14 1.438-1.676 2.188-3.352 2.25-5.032.05-1.914-.508-3.664-1.672-5.25-1.168-1.594-3.133-3.254-5.89-4.984-2.75-1.738-6.524-3.781-11.313-6.125-4.793-2.27-8.492-4.766-11.094-7.485-2.605-2.726-3.82-6.367-3.64-10.921.125-3.051 1.05-5.758 2.781-8.125 1.738-2.375 4.063-4.25 6.969-5.625 2.906-1.375 6.242-2.063 10.015-2.063 2.22 0 4.43.242 6.641.719 2.219.48 4.238.976 6.063 1.484 1.832.512 3.257.766 4.28.766.895 0 1.52-.238 1.876-.719a2.81 2.81 0 0 0 .594-1.578c.03-.57.046-1.035.046-1.39h2.516s.008.527.031 1.577c.032 1.043.078 2.297.14 3.766.063 1.469.15 2.836.267 4.094.125 1.437.32 3.027.593 4.765.27 1.73.524 3.227.766 4.485.238 1.25.36 1.875.36 1.875h-2.61c-1.375-4.188-3.203-7.492-5.484-9.922-2.274-2.426-4.79-4.16-7.547-5.203a23.708 23.708 0 0 0-8.532-1.578c-1.617 0-3.101.465-4.453 1.39a9.82 9.82 0 0 0-3.14 3.516c-.743 1.406-1.11 2.855-1.11 4.344 0 2.105.598 3.86 1.797 5.265 1.195 1.407 2.723 2.59 4.578 3.547a65.272 65.272 0 0 0 5.828 2.656c2.04.805 3.899 1.653 5.579 2.547 1.613.899 3.468 1.946 5.562 3.141a38.248 38.248 0 0 1 6.063 4.312 21.78 21.78 0 0 1 4.843 5.985c1.29 2.305 1.938 4.98 1.938 8.031ZM272.236 453.505c-1.2 3.836-2.547 6.742-4.047 8.719-1.5 1.968-3 3.312-4.5 4.03-1.492.72-2.851 1.079-4.078 1.079h-2.922c-.96 0-1.98-.258-3.062-.766-1.074-.5-2.028-1.347-2.86-2.547-.543-.718-.996-1.75-1.359-3.093-.355-1.352-.531-3.14-.531-5.36-1.137 2.043-2.696 3.918-4.672 5.625-1.98 1.7-4.078 3.075-6.297 4.125-2.21 1.04-4.273 1.657-6.187 1.844-2.938.29-5.07-.277-6.391-1.703-1.313-1.438-2.074-3.969-2.281-7.594-.211-3.625-.137-8.55.218-14.781.063-.477.11-1.438.141-2.875.031-1.438.047-3.008.047-4.719 0-1.707-.047-3.265-.14-4.672-.087-1.406-.22-2.379-.407-2.922-.242-.593-.766-1.023-1.578-1.296-.805-.27-1.742-.375-2.813-.313v-2.422c.29.055 1.11.11 2.454.172 1.351.063 2.898.11 4.64.14 1.738.032 3.43-.007 5.078-.124 1.645-.125 2.914-.336 3.813-.64-.063 1.136-.125 2.71-.188 4.718-.054 2-.125 4.2-.218 6.594-.086 2.398-.157 4.75-.22 7.062a226.938 226.938 0 0 0-.093 6.063c0 2.93.055 5.203.172 6.828.125 1.617.379 2.765.766 3.453a3.398 3.398 0 0 0 1.671 1.484c1.07.356 2.176.281 3.313-.219 1.144-.507 2.254-1.257 3.328-2.25a27.043 27.043 0 0 0 2.875-3.046c.844-1.051 1.516-1.954 2.016-2.704.507-.75.765-1.125.765-1.125.188-3.351.25-6.332.188-8.937a375.84 375.84 0 0 0-.281-8.031c-.118-2.758-.172-5.969-.172-9.625.3.062.988.125 2.062.187 1.082.055 2.297.078 3.64.078 1.352 0 2.614-.039 3.782-.125 1.164-.093 1.957-.226 2.375-.406 0 .18-.016 1.152-.047 2.922a981.894 981.894 0 0 1-.14 6.469 484.328 484.328 0 0 1-.22 7.593c-.085 2.512-.155 4.637-.218 6.375-.125 3.594-.117 6.368.031 8.313.157 1.937.532 3.266 1.125 3.984.602.72 1.442 1.11 2.516 1.172.844 0 1.726-.492 2.656-1.484a16.569 16.569 0 0 0 2.422-3.36c.688-1.257 1.094-2.25 1.219-2.968ZM319.026 442.364c0 2.7-.418 5.516-1.25 8.453a29.53 29.53 0 0 1-3.734 8.172c-1.648 2.512-3.7 4.563-6.156 6.156-2.45 1.582-5.293 2.375-8.531 2.375-1.856 0-3.563-.335-5.125-1-1.555-.656-3.106-1.726-4.657-3.218v15.078c0 .187.024.71.078 1.578.063.863.125 2.348.188 4.453-.305-.125-.98-.203-2.031-.234a119.73 119.73 0 0 0-3.547-.047c-1.313 0-2.54.047-3.672.14-1.137.094-1.945.227-2.422.407.113-.48.242-1.516.39-3.11a98.26 98.26 0 0 0 .36-5.515c.094-2.094.172-4.219.234-6.375.063-2.157.094-4.04.094-5.657 0-1.8.008-4.02.031-6.656.032-2.633.047-5.43.047-8.39 0-2.97-.031-5.891-.093-8.766-.055-2.875-.2-5.492-.438-7.86-.242-2.363-.57-4.234-.984-5.609-.125-.664-.563-.984-1.313-.953a9.391 9.391 0 0 1-2.375-.219v-2.422c.3.055 1.078.094 2.328.125 1.258.032 2.711.024 4.36-.03a91.497 91.497 0 0 0 4.89-.313c1.625-.157 2.914-.414 3.875-.782v8c.657-1.132 1.614-2.316 2.875-3.546 1.258-1.227 2.832-2.274 4.719-3.141 1.883-.875 4.023-1.313 6.422-1.313 2.812 0 5.383.829 7.719 2.485 2.332 1.648 4.203 3.969 5.609 6.969 1.406 2.992 2.11 6.578 2.11 10.765Zm-12.484 2.516c.063-1.5.031-3.176-.094-5.031a35.996 35.996 0 0 0-.765-5.47c-.387-1.8-.985-3.343-1.797-4.624-.805-1.29-1.89-2.055-3.266-2.297-1.855-.3-3.383-.11-4.578.578a12.817 12.817 0 0 0-3.234 2.656c-1.325 1.493-2.196 2.852-2.61 4.078-.418 1.23-.625 1.844-.625 1.844v21.016c0 .844.344 1.824 1.032 2.937.687 1.106 2.02 1.868 4 2.282.894.242 1.984.199 3.265-.125 1.29-.332 2.567-1.114 3.828-2.344 1.258-1.227 2.336-3.082 3.235-5.563.894-2.488 1.43-5.8 1.609-9.937ZM368.076 442.364c0 2.7-.418 5.516-1.25 8.453a29.53 29.53 0 0 1-3.735 8.172c-1.648 2.512-3.7 4.563-6.156 6.156-2.45 1.582-5.293 2.375-8.531 2.375-1.856 0-3.563-.335-5.125-1-1.555-.656-3.106-1.726-4.657-3.218v15.078c0 .187.024.71.079 1.578.062.863.125 2.348.187 4.453-.305-.125-.98-.203-2.031-.234a119.73 119.73 0 0 0-3.547-.047c-1.313 0-2.54.047-3.672.14-1.137.094-1.945.227-2.422.407.113-.48.242-1.516.39-3.11a98.26 98.26 0 0 0 .36-5.515c.094-2.094.172-4.219.235-6.375.062-2.157.093-4.04.093-5.657 0-1.8.008-4.02.032-6.656.03-2.633.046-5.43.046-8.39 0-2.97-.03-5.891-.093-8.766-.055-2.875-.2-5.492-.438-7.86-.242-2.363-.57-4.234-.984-5.609-.125-.664-.563-.984-1.313-.953a9.391 9.391 0 0 1-2.375-.219v-2.422c.301.055 1.078.094 2.328.125 1.258.032 2.711.024 4.36-.03a91.497 91.497 0 0 0 4.89-.313c1.625-.157 2.914-.414 3.875-.782v8c.657-1.132 1.614-2.316 2.875-3.546 1.258-1.227 2.832-2.274 4.72-3.141 1.882-.875 4.023-1.313 6.421-1.313 2.813 0 5.383.829 7.719 2.485 2.332 1.648 4.203 3.969 5.61 6.969 1.405 2.992 2.109 6.578 2.109 10.765Zm-12.485 2.516c.063-1.5.031-3.176-.094-5.031a35.996 35.996 0 0 0-.765-5.47c-.387-1.8-.985-3.343-1.797-4.624-.805-1.29-1.89-2.055-3.266-2.297-1.855-.3-3.383-.11-4.578.578a12.817 12.817 0 0 0-3.234 2.656c-1.324 1.493-2.196 2.852-2.61 4.078-.418 1.23-.625 1.844-.625 1.844v21.016c0 .844.344 1.824 1.032 2.937.687 1.106 2.02 1.868 4 2.282.894.242 1.984.199 3.265-.125 1.29-.332 2.567-1.114 3.828-2.344 1.258-1.227 2.336-3.082 3.235-5.563.894-2.488 1.43-5.8 1.61-9.937ZM421.437 445.145c0 4.68-.976 8.696-2.922 12.047-1.937 3.356-4.68 5.918-8.218 7.688-3.532 1.758-7.696 2.64-12.485 2.64-4.25-.062-8.117-.933-11.594-2.609-3.468-1.676-6.226-4.25-8.265-7.719-2.031-3.476-3.047-7.851-3.047-13.125 0-4.312.941-8.097 2.828-11.359 1.895-3.258 4.578-5.816 8.047-7.672 3.476-1.863 7.582-2.828 12.312-2.89 4.313-.051 8.235.777 11.766 2.484 3.531 1.7 6.344 4.258 8.438 7.672 2.093 3.418 3.14 7.699 3.14 12.843Zm-13.562 2.516c.062-4.07-.196-7.844-.766-11.312-.562-3.477-1.547-6.282-2.953-8.407s-3.371-3.187-5.89-3.187c-2.7 0-5.055 1.71-7.063 5.125-2 3.418-2.969 8.777-2.906 16.078.062 3.469.468 6.64 1.218 9.516.75 2.875 1.867 5.14 3.36 6.796 1.5 1.649 3.382 2.47 5.656 2.47 1.144-.063 2.437-.54 3.875-1.438 1.437-.907 2.691-2.582 3.766-5.032 1.082-2.457 1.648-5.992 1.703-10.609ZM463.392 432.208c-.773.906-1.508 1.48-2.203 1.719a17.8 17.8 0 0 1-1.75.531c-.18-.719-.672-1.492-1.484-2.328-.805-.844-1.852-1.336-3.141-1.485-1.281-.156-2.734.399-4.36 1.657-.242.18-.687.617-1.343 1.312a80.804 80.804 0 0 0-2.063 2.25c-.718.805-1.336 1.508-1.843 2.11-.512.593-.766.89-.766.89v1.844c0 1.23.016 2.852.047 4.86.031 2 .062 4.214.094 6.64.03 2.418.07 4.84.125 7.266.062 2.43.125 4.632.187 6.609-.305-.125-1.008-.227-2.11-.313a61.443 61.443 0 0 0-3.812-.187 55.371 55.371 0 0 0-4 .047c-1.23.062-2.086.152-2.562.265.113-.476.242-1.582.39-3.312.157-1.738.29-3.773.407-6.11.125-2.343.242-4.663.359-6.968.125-2.3.187-4.258.187-5.875 0-2.156-.03-4.445-.093-6.875a115.612 115.612 0 0 0-.313-6.563c-.148-1.945-.37-3.218-.672-3.812-.242-.664-.765-1.102-1.578-1.313-.805-.207-1.746-.28-2.828-.218v-2.61c.363.063 1.25.156 2.656.281a100.8 100.8 0 0 0 4.89.266c1.864.055 3.661.04 5.392-.047 1.738-.094 3.054-.289 3.953-.594-.055.43-.125 1.329-.22 2.704-.093 1.375-.187 2.859-.28 4.453-.086 1.586-.157 2.945-.22 4.078-.054 1.137-.108 1.703-.171 1.703 0 0 .223-.344.672-1.031.445-.688 1-1.524 1.656-2.516a27.625 27.625 0 0 1 2.063-2.734c1.257-1.614 2.562-2.914 3.906-3.907 1.351-.988 2.988-1.785 4.906-2.39 2.156-.656 3.969-.52 5.438.406 1.468.93 2.304 2.262 2.515 4 .207 1.742-.468 3.508-2.031 5.297ZM500.59 453.24c-1.261 3.886-2.656 6.835-4.187 8.843-1.524 2.012-3 3.371-4.438 4.078-1.437.719-2.699 1.11-3.781 1.172-1.074.062-1.789.094-2.14.094-1.325-.125-2.766-.477-4.329-1.047-1.554-.563-2.867-1.922-3.937-4.078-.844-1.676-1.266-4.13-1.266-7.36 0-3.238.031-6.953.094-11.14.062-2.157.133-4.328.219-6.516.093-2.187.164-4.117.218-5.797.063-1.676.094-2.812.094-3.406h-6.015c-.063 0 .8-.598 2.593-1.797 1.801-1.195 3.899-2.906 6.297-5.125a68.46 68.46 0 0 0 3.781-3.906 137.737 137.737 0 0 0 3.188-3.672c.863-1.05 1.27-1.578 1.219-1.578v1.265c0 .836.007 1.915.03 3.235.032 1.312.048 2.633.048 3.953v3.484h9.437l-.093 4.313h-9.61a888.571 888.571 0 0 1-.188 7.875c-.054 2.242-.109 4.558-.171 6.953a247.817 247.817 0 0 0-.094 6.375c0 3.242.148 5.89.453 7.953.301 2.063 1.29 3.156 2.969 3.281 1.488.063 2.816-.71 3.984-2.328 1.176-1.625 2.242-3.633 3.203-6.031ZM666.138 406.52l-1.266.047c-.836.032-1.84.168-3.015.407-1.168.242-2.293.68-3.375 1.312a5.415 5.415 0 0 0-2.329 2.64 354.88 354.88 0 0 0-4.359 10.016c-1.586 3.805-3.23 7.82-4.937 12.047-1.7 4.219-3.387 8.422-5.063 12.61-1.68 4.187-3.25 8.156-4.719 11.906a1609.482 1609.482 0 0 0-3.828 9.828h-2.062l-1.125-2.469c-.75-1.644-1.742-3.86-2.97-6.64-1.218-2.79-2.562-5.891-4.03-9.297a370.386 370.386 0 0 1-4.36-10.594 251.741 251.741 0 0 1-3.86-10.438c.063 0-.21.711-.812 2.125-.593 1.407-1.386 3.278-2.375 5.61l-3.28 7.719c-1.2 2.812-2.415 5.632-3.641 8.453a730.655 730.655 0 0 0-3.329 7.718c-.98 2.336-1.789 4.22-2.421 5.657l-.938 2.156h-2.062s-.375-.93-1.125-2.781c-.75-1.852-1.774-4.32-3.063-7.407a7259.731 7259.731 0 0 0-4.266-10.234c-1.554-3.75-3.14-7.539-4.765-11.375a890.492 890.492 0 0 0-4.625-10.781 572.054 572.054 0 0 0-3.766-8.485c-1.054-2.3-1.789-3.785-2.203-4.453-1.023-1.675-2.266-2.945-3.734-3.812-1.461-.863-3.688-1.328-6.688-1.39v-2.704l1.61.094c1.082.062 2.46.125 4.14.187 1.676.055 3.395.11 5.156.172 1.77.063 3.317.094 4.641.094 1.195 0 2.66-.031 4.39-.094 1.739-.062 3.446-.101 5.126-.125 1.675-.031 3.066-.078 4.172-.14l1.671-.094v2.703c-3.718-.063-5.46 1.496-5.218 4.672.125 1.137.586 2.902 1.39 5.297.813 2.398 1.832 5.105 3.063 8.125 1.226 3.023 2.5 6.078 3.812 9.172 1.32 3.086 2.535 5.914 3.64 8.484a429.597 429.597 0 0 1 2.563 6.016c.72-1.801 1.524-3.91 2.422-6.329.895-2.425 1.79-4.878 2.688-7.359a510.653 510.653 0 0 0 2.484-6.969c.75-2.156 1.363-3.89 1.844-5.203.477-1.32.719-1.984.719-1.984a374.853 374.853 0 0 0-2.125-5.563c-.625-1.625-1.09-2.644-1.39-3.062-.962-1.676-1.935-2.992-2.923-3.953-.98-.957-2.668-1.469-5.062-1.532v-2.687l2.062.14c1.375.087 3.063.188 5.063.313 2.008.117 3.883.172 5.625.172 1.258 0 2.847-.031 4.765-.094 1.914-.062 3.848-.117 5.797-.172 1.946-.062 3.578-.125 4.89-.187l1.97-.094v2.61c-5.563 0-8.137 1.558-7.72 4.671.126.961.532 2.547 1.22 4.766.687 2.219 1.535 4.75 2.546 7.594 1.02 2.843 2.067 5.765 3.141 8.765a468.16 468.16 0 0 0 3.063 8.25c.957 2.512 1.734 4.532 2.328 6.063.601 1.531.906 2.265.906 2.203.062 0 .39-.836.984-2.516.602-1.675 1.383-3.847 2.344-6.515.957-2.664 1.973-5.54 3.047-8.625a433.566 433.566 0 0 0 3.016-8.89 299.525 299.525 0 0 0 2.28-7.267c.602-2.007.876-3.285.813-3.828-.054-1.738-.636-2.922-1.75-3.547-1.105-.625-3.246-.968-6.422-1.03v-2.61l1.532.094c1.02.062 2.273.109 3.765.14 1.5.024 3.024.063 4.578.125 1.563.063 2.88.094 3.954.094 1.382 0 2.988-.04 4.812-.125 1.82-.094 3.438-.188 4.844-.281l2.125-.14ZM711.419 453.052c-2.762 5.156-5.79 8.86-9.078 11.11-3.293 2.237-7.547 3.358-12.766 3.358-3.648 0-7.027-.87-10.14-2.609-3.118-1.738-5.618-4.207-7.5-7.406-1.887-3.207-2.829-7.055-2.829-11.547 0-4.25.656-7.883 1.969-10.906 1.32-3.032 3.086-5.52 5.297-7.469 2.219-1.945 4.687-3.367 7.406-4.266a24.735 24.735 0 0 1 8.313-1.25c2.937 0 5.753.586 8.453 1.75 2.695 1.168 4.925 3.102 6.687 5.797 1.77 2.688 2.711 6.43 2.828 11.219h-29.015c.125 4.2.691 7.602 1.703 10.203 1.02 2.606 2.305 4.594 3.86 5.969 1.562 1.375 3.179 2.305 4.859 2.781 1.675.48 3.203.719 4.578.719 2.218 0 4.148-.535 5.797-1.61 1.644-1.082 3.05-2.351 4.218-3.812 1.176-1.469 2.094-2.773 2.75-3.922Zm-12.938-16.078c0-1.914-.242-3.77-.719-5.563-.48-1.8-1.214-3.27-2.203-4.406-.992-1.133-2.265-1.703-3.828-1.703-2.687 0-4.902.914-6.64 2.734-1.743 1.824-2.997 4.805-3.766 8.938ZM758.929 443.63c0 2.094-.39 4.476-1.172 7.14-.773 2.657-2.043 5.215-3.812 7.672-1.762 2.461-4.094 4.48-7 6.063-2.907 1.582-6.516 2.375-10.828 2.375-1.555 0-3.528-.168-5.922-.5a80.56 80.56 0 0 1-6.922-1.235c-2.219-.507-3.961-1.003-5.219-1.484.188-1.863.336-3.976.453-6.344.125-2.363.227-4.695.313-7 .093-2.312.14-4.273.14-5.89v-12.125c0-2.696-.015-5.438-.047-8.219a541.063 541.063 0 0 0-.14-7.813 178.11 178.11 0 0 0-.219-6.062c-.094-1.613-.2-2.57-.312-2.875-.418-1.02-1.735-1.531-3.954-1.531v-2.688c.352.055 1.204.094 2.547.125 1.352.031 2.899.024 4.64-.031a67.572 67.572 0 0 0 5.032-.36c1.613-.187 2.899-.43 3.86-.734-.18.781-.329 2.196-.454 4.235a153.521 153.521 0 0 0-.218 6.875l-.094 7.453a480.771 480.771 0 0 0-.047 6.015v2.47c.477-.782 1.242-1.708 2.297-2.782 1.05-1.082 2.351-2.04 3.906-2.875 1.55-.844 3.348-1.266 5.39-1.266 4.009-.062 7.333.899 9.97 2.875 2.632 1.98 4.609 4.59 5.921 7.828 1.32 3.23 1.954 6.793 1.891 10.688Zm-12.578 3.578c0-3.29-.29-6.36-.86-9.203-.562-2.844-1.546-5.145-2.953-6.906-1.406-1.77-3.34-2.657-5.796-2.657-1.012 0-2.09.29-3.235.86-1.137.562-2.094 1.386-2.875 2.468-.773 1.075-1.156 2.418-1.156 4.032l-.094 24.265c0 1.075.582 1.97 1.75 2.688 1.164.719 2.5 1.078 4 1.078 2.875 0 5.117-.863 6.735-2.594 1.613-1.738 2.765-3.894 3.453-6.469.687-2.582 1.03-5.101 1.03-7.562ZM864.044 435.083c0 2.523-.351 5.187-1.046 8-.688 2.812-1.84 5.57-3.454 8.266-1.617 2.699-3.804 5.156-6.562 7.375-2.75 2.21-6.195 3.976-10.328 5.296-4.125 1.313-9.063 1.97-14.813 1.97h-26.593l-.094-2.688c1.738-.063 3.344-.332 4.812-.813 1.469-.476 2.68-1.285 3.64-2.422.352-.425.65-1.46.892-3.109.238-1.645.398-3.57.484-5.781.094-2.219.156-4.422.187-6.61.032-2.187.047-4.101.047-5.75V432.49c0-1.738-.031-3.82-.093-6.25-.055-2.426-.141-4.847-.266-7.265-.117-2.426-.281-4.551-.5-6.375-.211-1.832-.492-2.989-.844-3.47-.656-.956-1.527-1.597-2.61-1.921a11.971 11.971 0 0 0-3.187-.547 92.09 92.09 0 0 0-2.656-.047v-2.875l25.516.094c7.488 0 14.047 1.152 19.672 3.453 5.632 2.305 10.007 5.762 13.125 10.375 3.113 4.617 4.671 10.422 4.671 17.422Zm-15.28.36c0-3.883-.29-7.594-.86-11.126-.563-3.539-1.774-6.597-3.625-9.172-.48-.718-1.305-1.66-2.469-2.828-1.168-1.164-2.906-2.226-5.219-3.187-2.304-.957-5.433-1.438-9.39-1.438-1.137 0-2.11-.015-2.922-.047-.805-.03-1.266.016-1.39.141l-.048 2.969c-.023 1.969-.031 4.59-.031 7.86 0 3.26.008 6.84.031 10.734l.094 11.625c.031 3.867.063 7.43.094 10.687a1323.212 1323.212 0 0 0 .14 10.828c-.062-.125.504-.156 1.704-.094 1.195.063 2.453.125 3.765.188.188 0 .8-.047 1.844-.14 1.05-.094 2.336-.38 3.86-.86 1.53-.477 3.132-1.254 4.812-2.328 1.676-1.082 3.234-2.625 4.672-4.625 1.437-2.008 2.617-4.57 3.547-7.688.925-3.113 1.39-6.945 1.39-11.5ZM912.376 453.052c-2.761 5.156-5.789 8.86-9.078 11.11-3.293 2.237-7.547 3.358-12.765 3.358-3.649 0-7.028-.87-10.141-2.609-3.117-1.738-5.617-4.207-7.5-7.406-1.887-3.207-2.828-7.055-2.828-11.547 0-4.25.656-7.883 1.969-10.906 1.32-3.032 3.086-5.52 5.296-7.469 2.22-1.945 4.688-3.367 7.407-4.266a24.735 24.735 0 0 1 8.312-1.25c2.938 0 5.754.586 8.453 1.75 2.696 1.168 4.926 3.102 6.688 5.797 1.77 2.688 2.71 6.43 2.828 11.219h-29.016c.125 4.2.692 7.602 1.703 10.203 1.02 2.606 2.305 4.594 3.86 5.969 1.562 1.375 3.18 2.305 4.86 2.781 1.675.48 3.202.719 4.577.719 2.22 0 4.149-.535 5.797-1.61 1.645-1.082 3.051-2.351 4.219-3.812 1.176-1.469 2.094-2.773 2.75-3.922Zm-12.937-16.078c0-1.914-.242-3.77-.719-5.563-.48-1.8-1.215-3.27-2.203-4.406-.992-1.133-2.266-1.703-3.828-1.703-2.688 0-4.902.914-6.64 2.734-1.743 1.824-2.997 4.805-3.766 8.938ZM963.934 428.708c.062 1.98-.403 4.094-1.391 6.344-.992 2.242-2.266 4.574-3.828 7a778.157 778.157 0 0 0-4.844 7.672c-2.094 3.355-3.715 6.07-4.86 8.14-1.136 2.063-1.96 3.727-2.468 4.985-.5 1.261-.902 2.34-1.203 3.234-.242-.125-.813-.195-1.719-.219a85.885 85.885 0 0 0-2.969-.047c-1.074 0-2.043.016-2.906.047-.867.024-1.387.063-1.562.125 0 0-.274-.773-.813-2.328-.543-1.562-1.25-3.613-2.125-6.156a523.79 523.79 0 0 0-2.875-8.219 1389.331 1389.331 0 0 0-3.094-8.625 291.546 291.546 0 0 0-2.78-7.453c-.837-2.156-1.466-3.656-1.892-4.5-.656-1.313-1.464-2.191-2.421-2.64-.961-.458-1.903-.696-2.829-.72-.93-.03-1.75-.046-2.468-.046v-3.328c.238.062.941.156 2.11.28 1.163.118 2.57.235 4.218.36 1.644.117 3.336.203 5.078.266a70.48 70.48 0 0 0 4.812 0c1.47-.063 2.586-.211 3.36-.453.363 1.554.945 3.726 1.75 6.515.812 2.782 1.77 5.852 2.875 9.203a520.886 520.886 0 0 1 3.281 10.25c1.082 3.47 2.07 6.7 2.969 9.688 2.219-4.727 3.926-9.504 5.125-14.328 1.195-4.82 1.82-8.938 1.875-12.344.062-1.5-.164-2.726-.672-3.687-.512-.957-1.008-1.676-1.484-2.157-.48-.476-.72-.718-.72-.718.063 0 .243-.207.548-.625.3-.426.82-.864 1.562-1.313.75-.445 1.785-.703 3.11-.766 2.507-.113 4.66.22 6.453 1 1.8.774 2.734 2.625 2.797 5.563ZM1011.103 453.052c-2.761 5.156-5.789 8.86-9.078 11.11-3.293 2.237-7.547 3.358-12.765 3.358-3.649 0-7.028-.87-10.14-2.609-3.118-1.738-5.618-4.207-7.5-7.406-1.888-3.207-2.829-7.055-2.829-11.547 0-4.25.656-7.883 1.969-10.906 1.32-3.032 3.086-5.52 5.297-7.469 2.218-1.945 4.687-3.367 7.406-4.266a24.735 24.735 0 0 1 8.312-1.25c2.938 0 5.754.586 8.453 1.75 2.696 1.168 4.926 3.102 6.688 5.797 1.77 2.688 2.71 6.43 2.828 11.219h-29.016c.125 4.2.692 7.602 1.704 10.203 1.02 2.606 2.304 4.594 3.859 5.969 1.562 1.375 3.18 2.305 4.86 2.781 1.675.48 3.202.719 4.577.719 2.22 0 4.149-.535 5.797-1.61 1.645-1.082 3.051-2.351 4.22-3.812 1.175-1.469 2.093-2.773 2.75-3.922Zm-12.937-16.078c0-1.914-.242-3.77-.719-5.563-.48-1.8-1.215-3.27-2.203-4.406-.992-1.133-2.266-1.703-3.828-1.703-2.688 0-4.902.914-6.64 2.734-1.743 1.824-2.997 4.805-3.766 8.938ZM1042.442 454.942c-1.25 3.532-2.899 6.496-4.938 8.891-2.03 2.394-4.964 3.562-8.796 3.5-2.22-.063-4.032-.664-5.438-1.797-1.406-1.133-2.2-2.719-2.375-4.75-.242-2.039-.39-4.617-.453-7.734a355.699 355.699 0 0 1-.047-10.14c.031-3.657.07-7.352.125-11.095.063-3.75.094-7.3.094-10.656 0-3.351-.063-6.285-.188-8.797-.117-2.52-.351-4.347-.703-5.484-.18-.656-.617-1.086-1.312-1.297-.688-.207-1.57-.313-2.641-.313v-2.609c.352.063 1.203.14 2.547.234 1.351.086 2.926.141 4.719.172 1.8.032 3.539-.007 5.218-.125 1.676-.125 2.993-.336 3.954-.64-.118.898-.25 2.453-.407 4.672-.148 2.218-.265 4.87-.36 7.953-.085 3.086-.171 6.351-.265 9.797a1164.8 1164.8 0 0 0-.234 10.234c-.055 3.387-.094 6.5-.125 9.344-.031 2.843-.047 5.21-.047 7.093v3.36c.176 2.398.336 4.031.484 4.906.157.867.985 1.36 2.485 1.484 1.25.118 2.351-.515 3.312-1.89.957-1.375 1.977-3.258 3.063-5.656ZM1093.466 445.145c0 4.68-.977 8.696-2.922 12.047-1.938 3.356-4.68 5.918-8.219 7.688-3.531 1.758-7.695 2.64-12.484 2.64-4.25-.062-8.117-.933-11.594-2.609-3.469-1.676-6.227-4.25-8.266-7.719-2.03-3.476-3.046-7.851-3.046-13.125 0-4.312.94-8.097 2.828-11.359 1.894-3.258 4.578-5.816 8.047-7.672 3.476-1.863 7.582-2.828 12.312-2.89 4.313-.051 8.234.777 11.766 2.484 3.53 1.7 6.343 4.258 8.437 7.672 2.094 3.418 3.14 7.699 3.14 12.843Zm-13.563 2.516c.063-4.07-.195-7.844-.765-11.312-.563-3.477-1.547-6.282-2.953-8.407-1.407-2.125-3.372-3.187-5.891-3.187-2.7 0-5.055 1.71-7.063 5.125-2 3.418-2.968 8.777-2.906 16.078.063 3.469.469 6.64 1.219 9.516.75 2.875 1.867 5.14 3.36 6.796 1.5 1.649 3.382 2.47 5.656 2.47 1.144-.063 2.437-.54 3.875-1.438 1.437-.907 2.69-2.582 3.765-5.032 1.082-2.457 1.649-5.992 1.703-10.609ZM1142.514 442.364c0 2.7-.418 5.516-1.25 8.453a29.53 29.53 0 0 1-3.734 8.172c-1.648 2.512-3.7 4.563-6.156 6.156-2.45 1.582-5.293 2.375-8.531 2.375-1.856 0-3.563-.335-5.125-1-1.555-.656-3.106-1.726-4.657-3.218v15.078c0 .187.024.71.078 1.578.063.863.125 2.348.188 4.453-.305-.125-.98-.203-2.031-.234a119.73 119.73 0 0 0-3.547-.047c-1.313 0-2.54.047-3.672.14-1.137.094-1.945.227-2.422.407.113-.48.242-1.516.39-3.11a98.26 98.26 0 0 0 .36-5.515c.094-2.094.172-4.219.234-6.375.063-2.157.094-4.04.094-5.657 0-1.8.008-4.02.031-6.656.032-2.633.047-5.43.047-8.39 0-2.97-.03-5.891-.093-8.766-.055-2.875-.2-5.492-.438-7.86-.242-2.363-.57-4.234-.984-5.609-.125-.664-.563-.984-1.313-.953a9.391 9.391 0 0 1-2.375-.219v-2.422c.301.055 1.078.094 2.328.125 1.258.032 2.711.024 4.36-.03a91.497 91.497 0 0 0 4.89-.313c1.625-.157 2.914-.414 3.875-.782v8c.657-1.132 1.614-2.316 2.875-3.546 1.258-1.227 2.832-2.274 4.72-3.141 1.882-.875 4.023-1.313 6.42-1.313 2.813 0 5.384.829 7.72 2.485 2.332 1.648 4.203 3.969 5.61 6.969 1.405 2.992 2.108 6.578 2.108 10.765Zm-12.484 2.516c.063-1.5.031-3.176-.094-5.031a35.996 35.996 0 0 0-.765-5.47c-.387-1.8-.985-3.343-1.797-4.624-.805-1.29-1.89-2.055-3.266-2.297-1.855-.3-3.383-.11-4.578.578a12.817 12.817 0 0 0-3.234 2.656c-1.325 1.493-2.196 2.852-2.61 4.078-.418 1.23-.625 1.844-.625 1.844v21.016c0 .844.344 1.824 1.032 2.937.687 1.106 2.02 1.868 4 2.282.894.242 1.984.199 3.265-.125 1.29-.332 2.567-1.114 3.828-2.344 1.258-1.227 2.336-3.082 3.235-5.563.894-2.488 1.43-5.8 1.61-9.937ZM1232.08 453.24c-.837 3.53-1.97 6.288-3.407 8.265-1.438 1.969-2.969 3.375-4.594 4.219-1.617.832-3.11 1.32-4.484 1.468-1.375.157-2.422.235-3.14.235-1.981 0-3.641-.746-4.985-2.235-1.344-1.5-2.215-4.093-2.61-7.78-.386-3.688-.164-8.759.672-15.22.426-3.3.563-5.832.407-7.593-.149-1.77-.477-3.032-.985-3.782-.512-.75-1.094-1.21-1.75-1.39-1.5-.477-2.969-.43-4.406.14a12.832 12.832 0 0 0-3.953 2.47 26.793 26.793 0 0 0-3.188 3.374c-.93 1.168-1.648 2.172-2.156 3.016l-.766 1.25c-.18 3.648-.265 6.968-.265 9.968 0 2.993.023 5.805.078 8.438.062 2.637.094 5.305.094 8-.293-.125-.98-.211-2.063-.266a62.378 62.378 0 0 0-3.594-.093c-1.312 0-2.527.03-3.64.093-1.106.055-1.899.168-2.375.344.125-.469.195-1.508.219-3.125.03-1.625.062-3.531.093-5.719.032-2.187.047-4.382.047-6.593v-5.75c0-5.207-.09-9.04-.265-11.5-.18-2.457-.747-3.805-1.704-4.047a6.699 6.699 0 0 0-4.453.093 13.849 13.849 0 0 0-4.093 2.391 28.05 28.05 0 0 0-3.313 3.234c-.96 1.106-1.71 2.063-2.25 2.875l-.812 1.204c-.055 3.886-.11 7.312-.172 10.28-.063 2.97-.11 5.774-.14 8.407-.032 2.637.015 5.36.14 8.172-.305-.125-.95-.211-1.938-.266a89.886 89.886 0 0 0-3.281-.14 39.616 39.616 0 0 0-3.375.047c-1.043.062-1.805.183-2.281.359.125-.477.21-1.555.265-3.234.063-1.676.125-3.625.188-5.844.062-2.219.117-4.445.172-6.688.062-2.25.093-4.18.093-5.797.063-2.218.11-4.535.141-6.953.031-2.425.031-4.597 0-6.515-.031-1.914-.2-3.176-.5-3.782-.242-.656-.766-1.101-1.578-1.343-.805-.239-1.746-.328-2.828-.266v-2.61c.363.063 1.203.141 2.515.235 1.32.086 2.864.14 4.625.172 1.77.031 3.477-.008 5.125-.125 1.645-.125 2.922-.367 3.829-.734-.305 1.324-.532 2.808-.688 4.453a50.701 50.701 0 0 0-.219 4.531v2.875c1.196-1.738 2.66-3.535 4.39-5.39a28.523 28.523 0 0 1 5.892-4.798c2.187-1.351 4.476-2.062 6.875-2.125 3.238-.113 5.93.774 8.078 2.657 2.156 1.886 3.207 5.258 3.156 10.11a43.512 43.512 0 0 1 4.61-6.063 24.519 24.519 0 0 1 6.03-4.844c2.25-1.29 4.72-1.938 7.407-1.938 2.039 0 3.82.313 5.344.938 1.53.625 2.726 1.808 3.593 3.547.875 1.742 1.368 4.23 1.485 7.468.125 3.23-.203 7.45-.985 12.657-.48 3.18-.68 5.68-.593 7.5.093 1.824.347 3.156.765 4 .426.836.938 1.36 1.531 1.578.602.21 1.172.312 1.704.312 1.195-.062 2.21-.644 3.046-1.75a15.705 15.705 0 0 0 2.032-3.547c.508-1.257.828-2.128.953-2.609ZM1277.73 453.052c-2.762 5.156-5.79 8.86-9.079 11.11-3.293 2.237-7.547 3.358-12.765 3.358-3.649 0-7.028-.87-10.14-2.609-3.118-1.738-5.618-4.207-7.5-7.406-1.888-3.207-2.829-7.055-2.829-11.547 0-4.25.656-7.883 1.969-10.906 1.32-3.032 3.086-5.52 5.297-7.469 2.218-1.945 4.687-3.367 7.406-4.266a24.735 24.735 0 0 1 8.312-1.25c2.938 0 5.754.586 8.453 1.75 2.696 1.168 4.926 3.102 6.688 5.797 1.77 2.688 2.71 6.43 2.828 11.219h-29.016c.125 4.2.692 7.602 1.704 10.203 1.02 2.606 2.304 4.594 3.859 5.969 1.562 1.375 3.18 2.305 4.86 2.781 1.675.48 3.202.719 4.577.719 2.22 0 4.149-.535 5.797-1.61 1.645-1.082 3.051-2.351 4.22-3.812 1.175-1.469 2.093-2.773 2.75-3.922Zm-12.938-16.078c0-1.914-.242-3.77-.719-5.563-.48-1.8-1.215-3.27-2.203-4.406-.992-1.133-2.266-1.703-3.828-1.703-2.688 0-4.902.914-6.64 2.734-1.743 1.824-2.997 4.805-3.766 8.938ZM1337.912 453.24c-1.2 3.648-2.578 6.46-4.141 8.437-1.555 1.98-3.094 3.375-4.625 4.187-1.523.801-2.855 1.258-4 1.375-1.137.125-1.914.188-2.328.188-.781 0-1.86-.215-3.234-.64-1.375-.419-2.633-1.552-3.766-3.407-.906-1.55-1.39-4.18-1.453-7.89-.055-3.72.16-8.18.64-13.391.352-3.895.38-6.77.079-8.625-.293-1.852-.743-3.094-1.344-3.72-.594-.632-1.196-1.038-1.797-1.218-1.375-.426-2.68-.383-3.906.125a10.07 10.07 0 0 0-3.282 2.203 21.15 21.15 0 0 0-2.515 3.016c-.711 1.043-1.246 1.937-1.61 2.687-.355.75-.53 1.125-.53 1.125-.306 5.45-.368 10.48-.188 15.094.175 4.617.328 9.047.453 13.297-.367-.176-1.133-.32-2.297-.438a35.94 35.94 0 0 0-3.813-.187c-1.375 0-2.652.047-3.828.14-1.168.087-1.992.215-2.468.391.125-.476.257-1.57.406-3.281.156-1.707.304-3.711.453-6.016.144-2.3.266-4.601.36-6.906.093-2.312.163-4.273.218-5.89a94.596 94.596 0 0 0-.047-6.641c-.086-2.281-.219-4.3-.406-6.063-.18-1.77-.387-2.957-.625-3.562-.242-.656-.84-1.102-1.797-1.344-.96-.238-2.04-.36-3.234-.36v-2.874c.3.062 1.203.156 2.703.281 1.5.117 3.234.187 5.203.219a75.159 75.159 0 0 0 5.703-.14c1.832-.126 3.195-.364 4.094-.72a36.971 36.971 0 0 0-.766 5.797c-.086 1.887-.101 3.246-.047 4.078.301-.957.914-2.078 1.844-3.359.926-1.29 2.148-2.52 3.672-3.688 1.531-1.164 3.344-2.062 5.437-2.687 2.102-.633 4.442-.8 7.016-.5 1.738.18 3.281.672 4.625 1.484 1.344.805 2.406 2.075 3.188 3.813.78 1.742 1.195 4.125 1.25 7.156.062 3.024-.325 6.867-1.157 11.531-.656 3.711-.855 6.57-.593 8.578.269 2.012.75 3.375 1.437 4.094.695.719 1.313 1.078 1.844 1.078.957 0 1.812-.359 2.562-1.078a11.508 11.508 0 0 0 1.969-2.515 20.794 20.794 0 0 0 1.39-2.735c.364-.875.579-1.492.641-1.86ZM1371.96 453.24c-1.262 3.886-2.657 6.835-4.188 8.843-1.523 2.012-3 3.371-4.437 4.078-1.438.719-2.7 1.11-3.782 1.172-1.074.062-1.789.094-2.14.094-1.324-.125-2.766-.477-4.328-1.047-1.555-.563-2.868-1.922-3.938-4.078-.844-1.676-1.265-4.13-1.265-7.36 0-3.238.03-6.953.093-11.14.063-2.157.133-4.328.219-6.516.094-2.187.164-4.117.219-5.797.062-1.676.094-2.812.094-3.406h-6.016c-.063 0 .8-.598 2.594-1.797 1.8-1.195 3.898-2.906 6.297-5.125a68.46 68.46 0 0 0 3.78-3.906 137.737 137.737 0 0 0 3.188-3.672c.864-1.05 1.27-1.578 1.219-1.578v1.265c0 .836.008 1.915.031 3.235.032 1.312.047 2.633.047 3.953v3.484h9.438l-.094 4.313h-9.61a888.571 888.571 0 0 1-.188 7.875c-.054 2.242-.108 4.558-.17 6.953a247.817 247.817 0 0 0-.095 6.375c0 3.242.149 5.89.454 7.953.3 2.063 1.289 3.156 2.968 3.281 1.489.063 2.817-.71 3.985-2.328 1.175-1.625 2.242-3.633 3.203-6.031Zm0 0"/></svg>