<svg xmlns="http://www.w3.org/2000/svg" 
version="1.0" 
viewBox="0 0 1440 540">
  <path 
  fill="#09b" 
  d="M325.57 242.453c0 13.055-3.382 24.05-10.144 32.992-6.766 8.93-15.64 16.059-26.63 21.375-10.991 5.32-22.89 9.063-35.694 11.243-12.801 2.175-25.239 2.898-37.313 2.171-9.66-.73-18.297-2.12-25.906-4.171-7.606-2.055-14.309-4.043-20.106-5.977-5.797-1.93-10.629-2.895-14.484-2.895-3.871 0-6.41 1.27-7.617 3.805-1.203 2.535-1.801 5.375-1.801 8.516h-10.516l-.183-6.348c-.117-4.226-.356-9.3-.723-15.215-.363-5.922-.902-11.304-1.617-16.14-.73-5.797-1.816-11.957-3.266-18.48a1908.971 1908.971 0 0 0-3.8-16.849c-1.09-4.714-1.633-7.07-1.633-7.07h10.5c1.937 4.344 4.718 10.203 8.343 17.57 3.622 7.375 8.45 14.81 14.485 22.305 6.031 7.485 13.394 13.824 22.09 19.02 8.699 5.195 18.965 7.914 30.8 8.16 10.145.238 19.747-1.817 28.797-6.16 9.063-4.352 16.493-9.91 22.29-16.68 5.796-6.762 8.812-13.527 9.054-20.297.246-7.73-1.988-14.8-6.7-21.207-4.706-6.406-12.62-13.11-23.733-20.113-11.106-7.012-26.317-15.235-45.641-24.66-19.324-9.18-34.242-19.266-44.746-30.262-10.512-10.996-15.403-25.68-14.672-44.047.484-12.32 4.223-23.25 11.223-32.789 7.007-9.55 16.367-17.102 28.078-22.656 11.718-5.563 25.187-8.348 40.406-8.348 8.934 0 17.871.973 26.797 2.91 8.937 1.934 17.09 3.926 24.46 5.977 7.368 2.054 13.102 3.082 17.212 3.082 3.62 0 6.156-.965 7.601-2.899 1.457-1.937 2.242-4.054 2.356-6.343.125-2.297.183-4.172.183-5.621h10.145l.187 6.343c.121 4.235.297 9.313.536 15.235.246 5.914.609 11.406 1.093 16.476.48 5.805 1.266 12.211 2.356 19.223 1.086 7.004 2.113 13.043 3.078 18.125.965 5.078 1.45 7.61 1.45 7.61h-10.517c-5.55-16.919-12.921-30.27-22.101-40.06-9.176-9.78-19.32-16.788-30.434-21.023-11.105-4.226-22.574-6.344-34.402-6.344-6.527 0-12.512 1.876-17.95 5.622-5.429 3.738-9.652 8.453-12.667 14.136-3.016 5.68-4.528 11.54-4.528 17.575 0 8.464 2.41 15.53 7.239 21.207 4.832 5.68 10.988 10.453 18.468 14.324 7.489 3.86 15.34 7.422 23.551 10.687 8.223 3.266 15.711 6.711 22.477 10.336 6.512 3.625 14 7.852 22.457 12.688 8.453 4.828 16.61 10.625 24.457 17.39 7.851 6.77 14.37 14.801 19.566 24.102 5.192 9.3 7.79 20.121 7.79 32.45ZM597.074 64.832s-1.691.063-5.078.184c-3.379.125-7.422.671-12.133 1.632-4.707.97-9.242 2.72-13.59 5.254-4.351 2.535-7.492 6.098-9.421 10.688-3.141 7.496-7.247 17.168-12.313 29.015a46383.223 46383.223 0 0 0-16.672 38.965 15083.285 15083.285 0 0 1-18.656 43.493 11633.768 11633.768 0 0 0-18.488 43.14c-5.91 13.89-11.22 26.336-15.93 37.332-4.711 10.996-8.457 19.7-11.238 26.106l-4.157 9.593h-19.195l-4.168-11.226a5529.64 5529.64 0 0 0-11.238-29.91c-4.711-12.446-9.969-26.215-15.762-41.32a7527.174 7527.174 0 0 0-17.75-45.848 6494.27 6494.27 0 0 0-17.207-43.696c-5.43-13.652-10.14-25.132-14.133-34.437-3.98-9.3-6.816-15.281-8.511-17.942-4.106-6.52-9.059-11.527-14.856-15.03-5.797-3.513-14.851-5.384-27.168-5.622V54.328s2.473.125 7.422.371c4.957.239 11.176.535 18.656.895 7.489.36 15.098.66 22.828.906 7.735.238 14.254.355 19.563.355 4.832 0 10.808-.117 17.933-.355 7.13-.246 14.196-.422 21.196-.54 7.008-.12 12.867-.3 17.578-.538 4.71-.246 7.066-.367 7.066-.367v10.5c-11.359 0-19.515 1.52-24.46 4.547-4.95 3.015-7.18 7.789-6.696 14.304.48 5.805 2.715 14.504 6.695 26.106 3.98 11.593 8.934 24.941 14.856 40.043a3849.284 3849.284 0 0 0 18.84 47.129c6.64 16.316 12.86 32.09 18.656 47.312 4.836-12.328 9.902-25.32 15.21-38.965a6618.607 6618.607 0 0 1 15.946-40.597c5.313-13.418 10.086-25.868 14.317-37.348 4.222-11.477 7.605-21.2 10.144-29.172 2.531-7.977 3.8-13.293 3.8-15.953-.245-6.766-2.663-11.418-7.25-13.953-4.585-2.535-13.28-3.93-26.073-4.176V54.328s1.925.125 5.785.371c3.867.239 8.758.477 14.672.723 5.918.238 11.898.476 17.93.723 6.042.242 11.238.355 15.578.355 5.562 0 12.086-.176 19.566-.54 7.488-.366 14.012-.73 19.562-1.093 5.563-.355 8.344-.539 8.344-.539ZM790.082 186.512h-8.078c-2.063-6.969-4.844-12.832-8.328-17.586-3.492-4.762-6.582-7.625-9.266-8.578-3.965-1.426-7.336-2.375-10.113-2.852-2.774-.469-5.742-.664-8.914-.582-3.172.07-7.528.106-13.07.106V245.992c0 6.973.078 13.95.234 20.93.152 6.984.543 13.133 1.183 18.453.637 5.309 1.508 8.832 2.618 10.563 1.742 2.703 3.605 4.449 5.586 5.238 1.98.793 4.316 1.308 7.004 1.554 2.699.239 5.792.75 9.28 1.54v7.378c-4.597-.636-10.581-1.148-17.945-1.539-7.37-.402-15.18-.68-23.43-.832-8.241-.164-16.128-.086-23.66.23-7.519.321-13.738.876-18.656 1.665l.25-7.133c5.856-.16 10.098-.758 12.711-1.785 2.617-1.035 5.43-3.297 8.438-6.777.953-1.118 1.707-3.543 2.261-7.27.555-3.727.95-8.285 1.188-13.676.234-5.39.39-10.972.477-16.758.078-5.789.156-11.304.23-16.539.082-5.238.121-9.52.121-12.843v-71.602c-5.539 0-10.098-.039-13.668-.125-3.562-.078-6.847.078-9.867.48-3.008.391-6.492 1.301-10.45 2.727-2.863 1.106-6.042 4.043-9.53 8.809-3.477 4.754-6.168 10.543-8.067 17.355h-8.094c.953-7.453 1.547-14.066 1.785-19.851.235-5.79.278-12.414.122-19.868h145.742c-.156 7.454-.156 14.153 0 20.098.16 5.945.8 12.645 1.906 20.098ZM955.336 266.215c-.8 7.61-1.524 13.754-2.156 18.433-.63 4.676-1.102 8.914-1.418 12.723-.317 3.813-.477 8.41-.477 13.8H922.04c-8.71 0-18.3.036-28.77.106-10.46.082-20.878.125-31.261.125h-28.664c-8.711 0-15.762-.043-21.149-.125l-8.082-.105v-7.133c4.598-.16 8.758-.879 12.485-2.14 3.726-1.27 6.93-3.41 9.62-6.422.954-1.118 1.708-3.856 2.262-8.207.555-4.364.989-9.477 1.31-15.34.315-5.875.476-11.707.476-17.496V222.445c0-4.597-.043-10.11-.121-16.527a512.685 512.685 0 0 0-.586-19.281c-.32-6.426-.754-12.059-1.309-16.895-.555-4.836-1.309-7.887-2.262-9.148-1.902-2.535-4.199-4.2-6.898-4.992-2.7-.801-5.399-1.235-8.094-1.309a244.35 244.35 0 0 0-6.883-.121v-7.625h142.664c-.168 3.812-.21 6.945-.125 9.41.082 2.457.239 4.914.477 7.379.234 2.457.547 5.426.941 8.914.399 3.484.914 8.078 1.555 13.785h-8.328c-2.219-6.18-4.32-10.89-6.297-14.137-1.98-3.253-3.926-5.554-5.832-6.902-1.902-1.351-3.68-2.309-5.344-2.863a37.641 37.641 0 0 1-4.879-2.016 132.01 132.01 0 0 0-4.758-.957c-1.734-.316-4.347-.594-7.832-.832-3.492-.234-8.566-.469-15.226-.707-6.66-.246-15.695-.371-27.106-.371V218.641h4.157c2.777 0 6.226-.04 10.343-.125 4.125-.078 8.329-.239 12.606-.477 4.281-.234 7.965-.555 11.055-.953 3.097-.402 4.96-.996 5.586-1.79 4.593-5.07 7.449-9.269 8.558-12.597 1.117-3.332 1.914-6.508 2.387-9.515h7.851c.153 0 .188 1.425.106 4.28-.074 2.856-.23 6.505-.477 10.95-.238 4.434-.515 9.113-.832 14.031-.152 5.227-.113 10.34.125 15.34.235 4.988.512 9.156.832 12.488.313 3.329.399 5.153.246 5.47-.8.163-2.472.206-5.004.12-2.535-.078-3.8-.12-3.8-.12a121.13 121.13 0 0 1-.832-6.653c-.239-2.383-1.032-4.918-2.387-7.61-1.348-2.699-3.84-5.398-7.48-8.101-.954-.79-3.06-1.379-6.313-1.77-3.242-.402-6.926-.718-11.05-.957a201.342 201.342 0 0 0-12.009-.367H864.023v69.934c11.258 0 20.528-.235 27.817-.707 7.293-.469 13.16-1.024 17.594-1.664 4.441-.633 7.847-1.266 10.218-1.895 2.38-.633 4.364-1.113 5.957-1.43a356.546 356.546 0 0 0 7.36-3.804c2.695-1.426 5.273-3.965 7.726-7.61 2.465-3.652 4.489-9.367 6.082-17.14ZM1122.71 283.094c0 .164-1.386 1.832-4.155 5.004-2.774 3.175-6.938 6.824-12.485 10.953-5.543 4.117-12.558 7.722-21.043 10.812-8.476 3.086-18.422 4.633-29.832 4.633-9.984 0-19.851-1.547-29.601-4.633-9.75-3.09-18.625-8.047-26.63-14.863-8.003-6.828-14.421-15.672-19.257-26.535-4.832-10.863-7.25-24.063-7.25-39.598 0-13.96 2.332-26.25 7.004-36.87 4.68-10.626 11.059-19.583 19.137-26.876 8.082-7.3 17.16-12.812 27.226-16.539 10.07-3.73 20.414-5.594 31.035-5.594 7.45 0 14.102.676 19.965 2.02 5.867 1.347 10.86 2.734 14.977 4.156 4.125 1.43 7.058 2.14 8.804 2.14.47 0 1.461-.113 2.97-.35 1.51-.235 3.132-.95 4.882-2.142 1.742-1.19 2.926-3.132 3.555-5.824h5.234l2.137 56.137h-6.649c-2.062-8.723-5.355-16.617-9.882-23.668-4.516-7.055-10.383-12.605-17.594-16.648-7.203-4.043-15.883-5.832-26.028-5.364-7.77.168-13.992 1.282-18.671 3.344-4.672 2.055-8.668 4.984-11.993 8.793-3.015 3.492-5.718 7.898-8.097 13.215-2.371 5.308-4.235 11.969-5.586 19.976-1.348 8.008-2.02 18.043-2.02 30.094 0 17.766 2.258 32.117 6.774 43.063 4.527 10.933 10.515 18.86 17.965 23.777 7.449 4.922 15.53 7.379 24.242 7.379 7.613 0 14.394-1.031 20.336-3.098 5.941-2.062 11.09-4.558 15.453-7.484 4.36-2.934 8.043-5.871 11.054-8.809a724.76 724.76 0 0 0 7.372-7.254ZM1324.582 153.215c-4.918.476-8.766.91-11.543 1.308-2.773.395-4.91 1.063-6.418 2.02-1.504.953-2.887 2.539-4.156 4.758-.957 1.75-1.711 4.726-2.266 8.933-.554 4.2-.949 9.114-1.183 14.739a594.546 594.546 0 0 0-.477 17.125c-.074 5.793-.11 11.148-.11 16.066v11.64c-.163 5.083-.245 11.036-.245 17.852 0 6.82.078 13.559.23 20.223.164 6.664.602 12.531 1.309 17.601.715 5.075 1.715 8.407 2.988 9.997 2.531 3.011 4.789 4.953 6.77 5.82 1.98.875 4.156 1.308 6.527 1.308 2.379 0 5.238.399 8.574 1.188v7.379c-4.598-.473-10.586-.91-17.96-1.309a651.541 651.541 0 0 0-23.415-.832c-8.242-.156-16.086-.07-23.535.246-7.45.309-13.637.86-18.55 1.66v-7.375c5.702-.16 9.983-.835 12.839-2.019 2.851-1.188 5.625-3.371 8.328-6.543.79-.957 1.461-3.297 2.016-7.023.554-3.727.988-8.243 1.308-13.555.317-5.317.555-10.828.707-16.54.16-5.706.246-11.14.246-16.292 0-5.153-.086-9.399-.246-12.723h-68.238c0 2.055-.082 5.465-.246 10.227a501.288 501.288 0 0 0-.23 15.937c0 5.867.16 11.653.476 17.36.316 5.71.793 10.703 1.434 14.984.632 4.281 1.586 7.14 2.847 8.563 2.532 3.019 4.79 4.925 6.774 5.714 1.988.793 4.133 1.227 6.433 1.309 2.297.086 5.188.52 8.668 1.309v7.378c-4.601-.636-10.586-1.148-17.949-1.539a651.539 651.539 0 0 0-23.414-.832c-8.242-.164-16.129-.086-23.66.23-7.531.321-13.754.876-18.668 1.665v-7.133c3.969-.16 7.062-.523 9.281-1.078 2.215-.555 4.195-1.426 5.942-2.617 1.742-1.192 3.804-2.813 6.187-4.867.941-.954 1.73-3.297 2.371-7.024.633-3.726 1.07-8.242 1.309-13.55.234-5.321.39-10.876.476-16.665.082-5.793.121-11.265.121-16.418V220.891c0-4.364-.039-9.598-.12-15.696a497.786 497.786 0 0 0-.602-18.433c-.32-6.192-.797-11.664-1.43-16.418-.629-4.754-1.496-8.004-2.602-9.75-1.91-3.02-4.058-4.883-6.433-5.59-2.371-.719-4.867-1.035-7.485-.957a49.254 49.254 0 0 1-7.726-.352v-7.148c1.898.32 5.305.601 10.223.848 4.914.238 10.703.43 17.363.585 6.656.153 13.555.196 20.687.122a760.07 760.07 0 0 0 20.196-.477c6.343-.234 11.652-.594 15.933-1.078v7.625c-5.074.32-8.875.637-11.406.953-2.539.309-4.48.824-5.836 1.54-1.348.71-2.73 2.097-4.156 4.16-1.262 1.902-2.211 4.995-2.848 9.284-.637 4.286-1.117 9.16-1.43 14.633-.32 5.465-.48 11.051-.48 16.758v15.938h68.484c0-4.434-.043-9.583-.12-15.446a438.202 438.202 0 0 0-.602-17.496c-.309-5.793-.824-10.863-1.54-15.215-.706-4.363-1.624-7.34-2.742-8.933-1.898-2.856-4.039-4.676-6.417-5.47a20.607 20.607 0 0 0-7.25-1.062c-2.454.075-5.028-.05-7.727-.37v-6.9c1.91.321 5.316.602 10.223.849 4.914.238 10.699.43 17.363.585 6.656.153 13.55.196 20.687.122a777.787 777.787 0 0 0 20.317-.477c6.422-.234 11.699-.594 15.824-1.078Zm0 0"/><path fill="none" stroke="#e77400" stroke-linecap="round" stroke-width="3" d="M1.499 1.503h1795.67" transform="matrix(.7736 0 0 .774 24.223 345.442)"/><path fill="none" stroke="#e77400" stroke-linecap="round" stroke-width="3" d="M1.5 1.5h219.414" transform="matrix(0 .774 -.7736 0 583.946 323.617)"/><path fill="#09b" d="M69.93 441.809c.543.75 1.113 1.316 1.722 1.691.618.371 1.48.66 2.602.863 1.129.207 2.777.41 4.957.602v3.066c-1.766-.207-4.012-.36-6.727-.465a337.782 337.782 0 0 0-8.62-.199 251.537 251.537 0 0 0-8.805.063 289.79 289.79 0 0 0-7.45.246c-2.105.101-3.527.222-4.265.355v-3.066c2.164-.192 3.808-.41 4.926-.649 1.128-.246 1.98-.554 2.554-.921a6.865 6.865 0 0 0 1.586-1.48c.34-.481.625-1.556.863-3.22.235-1.664.434-3.68.602-6.05.172-2.38.309-4.844.414-7.395.102-2.555.152-4.95.152-7.191v-9.024c0-1.867-.011-4.09-.043-6.672a188.184 188.184 0 0 0-.261-7.808c-.137-2.618-.34-4.942-.617-6.977-.27-2.039-.641-3.402-1.11-4.078-.484-.82-1.012-1.418-1.586-1.79-.574-.374-1.426-.632-2.554-.769a268.78 268.78 0 0 0-4.926-.507v-3.067h-.106c.746.149 2.172.27 4.278.371 2.101.094 4.582.176 7.433.246 2.852.075 5.809.094 8.867.063 3.055-.04 5.946-.113 8.668-.215 2.715-.102 4.961-.254 6.727-.465v3.067c-2.18.207-3.828.398-4.957.57-1.121.164-1.965.414-2.54.754-.577.34-1.171.953-1.784 1.832-.403.617-.727 1.844-.973 3.683-.238 1.829-.422 3.95-.55 6.36a174.171 174.171 0 0 0-.262 7.453c-.032 2.55-.063 4.91-.094 7.086a375.011 375.011 0 0 0-.047 5.098v7.683c0 2.957.066 5.899.2 8.824.132 2.93.331 5.496.6 7.703.278 2.211.653 3.649 1.126 4.329ZM148.29 394.602h-3.466c-.883-2.989-2.074-5.497-3.57-7.532-1.488-2.039-2.813-3.27-3.973-3.68-1.691-.617-3.133-1.019-4.324-1.214a19.744 19.744 0 0 0-3.832-.262c-1.355.027-3.219.043-5.59.043V420.09c0 2.988.031 5.984.094 8.98.07 2.989.238 5.621.508 7.903.277 2.277.652 3.789 1.125 4.527.746 1.16 1.547 1.91 2.402 2.246.848.34 1.848.563 3 .664 1.156.106 2.48.324 3.973.664v3.156c-1.973-.265-4.54-.48-7.7-.648a290.102 290.102 0 0 0-10.035-.367 160.27 160.27 0 0 0-10.144.105c-3.223.137-5.887.371-7.988.711l.109-3.066c2.512-.063 4.328-.313 5.45-.754 1.112-.441 2.323-1.41 3.616-2.91.407-.473.73-1.504.97-3.098.233-1.601.401-3.558.507-5.867.101-2.316.168-4.719.2-7.191.03-2.485.062-4.844.093-7.086.039-2.25.062-4.086.062-5.512v-30.68c-2.382 0-4.34-.015-5.867-.047-1.531-.039-2.937.028-4.23.2-1.285.164-2.782.554-4.48 1.171-1.223.473-2.583 1.73-4.079 3.774-1.492 2.031-2.64 4.512-3.45 7.437h-3.48c.41-3.191.668-6.03.77-8.515.102-2.485.117-5.32.047-8.52h62.465c-.063 3.2-.063 6.07 0 8.625.07 2.551.343 5.418.816 8.61ZM251.816 430.488c0 3.676-.949 6.774-2.847 9.285-1.899 2.52-4.399 4.524-7.496 6.024-3.09 1.488-6.434 2.531-10.036 3.14-3.593.618-7.09.82-10.484.618-2.719-.207-5.152-.598-7.297-1.172a99.162 99.162 0 0 1-5.648-1.68c-1.63-.543-2.992-.816-4.078-.816-1.09 0-1.801.363-2.14 1.078-.337.71-.509 1.504-.509 2.39h-2.953s-.023-.597-.062-1.789a137.617 137.617 0 0 0-.2-4.28 57.44 57.44 0 0 0-.449-4.528 58.439 58.439 0 0 0-.922-5.207c-.41-1.836-.77-3.418-1.078-4.742-.3-1.325-.445-1.989-.445-1.989h2.953c.543 1.227 1.324 2.875 2.34 4.946 1.015 2.074 2.37 4.168 4.066 6.27 1.7 2.105 3.774 3.89 6.219 5.359 2.45 1.457 5.34 2.222 8.664 2.293 2.852.062 5.55-.516 8.098-1.739 2.554-1.222 4.648-2.781 6.281-4.683 1.629-1.91 2.477-3.813 2.539-5.715.07-2.176-.555-4.16-1.879-5.957-1.324-1.809-3.55-3.7-6.68-5.668-3.12-1.973-7.398-4.281-12.835-6.934-5.442-2.574-9.637-5.406-12.594-8.5-2.953-3.097-4.332-7.23-4.125-12.398.144-3.469 1.199-6.543 3.172-9.223 1.968-2.687 4.601-4.816 7.894-6.379 3.297-1.558 7.082-2.34 11.363-2.34 2.512 0 5.024.274 7.54.817 2.515.547 4.804 1.105 6.867 1.68 2.07.578 3.687.859 4.847.859 1.016 0 1.73-.27 2.141-.817.406-.539.629-1.128.66-1.77.031-.648.047-1.175.047-1.585h2.863l.047 1.785a270 270 0 0 0 .153 4.281c.07 1.664.175 3.211.308 4.637a74.18 74.18 0 0 0 .664 5.406c.305 1.973.59 3.672.86 5.098.277 1.43.417 2.14.417 2.14h-2.957c-1.57-4.75-3.648-8.503-6.234-11.257-2.578-2.762-5.43-4.73-8.559-5.914a26.866 26.866 0 0 0-9.664-1.785c-1.84 0-3.523.53-5.05 1.586-1.532 1.046-2.723 2.37-3.57 3.972-.844 1.594-1.262 3.235-1.262 4.93 0 2.383.675 4.37 2.03 5.973 1.356 1.593 3.083 2.933 5.188 4.019a75.758 75.758 0 0 0 6.633 3.02c2.309.918 4.41 1.878 6.313 2.894 1.836 1.02 3.945 2.211 6.324 3.574 2.379 1.356 4.672 2.989 6.883 4.899a24.852 24.852 0 0 1 5.496 6.777c1.453 2.617 2.183 5.66 2.183 9.117ZM321.426 433.86c-1.367 4.355-2.903 7.652-4.602 9.886-1.695 2.242-3.394 3.766-5.094 4.574-1.695.82-3.242 1.235-4.636 1.235h-3.309c-1.078 0-2.23-.29-3.46-.864-1.227-.578-2.31-1.543-3.25-2.91-.618-.808-1.134-1.98-1.54-3.511-.41-1.528-.617-3.551-.617-6.067-1.285 2.309-3.047 4.434-5.293 6.375-2.238 1.942-4.613 3.508-7.129 4.695-2.516 1.18-4.86 1.872-7.031 2.082-3.328.336-5.738-.308-7.238-1.94-1.5-1.634-2.364-4.5-2.602-8.61-.238-4.118-.148-9.707.262-16.774.062-.543.11-1.633.14-3.265.04-1.633.063-3.41.063-5.344a83.57 83.57 0 0 0-.156-5.297c-.102-1.602-.258-2.71-.461-3.328-.27-.676-.864-1.168-1.786-1.477-.914-.308-1.98-.425-3.203-.355v-2.758c.34.074 1.27.148 2.805.219 1.527.058 3.277.113 5.246.152 1.973.031 3.887-.02 5.758-.152 1.867-.145 3.309-.387 4.324-.727a380.7 380.7 0 0 0-.199 5.36c-.074 2.273-.16 4.77-.262 7.488-.094 2.719-.176 5.387-.246 8.008-.074 2.617-.11 4.91-.11 6.882 0 3.329.067 5.91.204 7.747.14 1.84.433 3.152.875 3.93a3.755 3.755 0 0 0 1.879 1.675c1.219.414 2.48.332 3.773-.246 1.293-.582 2.547-1.434 3.77-2.555a30.932 30.932 0 0 0 3.262-3.465 51.44 51.44 0 0 0 2.296-3.05c.57-.852.86-1.278.86-1.278.203-3.808.27-7.191.199-10.148a362.517 362.517 0 0 0-.305-9.117c-.136-3.133-.203-6.77-.203-10.922.34.074 1.117.148 2.34.215a82.4 82.4 0 0 0 4.14.093c1.528 0 2.958-.05 4.282-.152 1.324-.101 2.219-.254 2.691-.465 0 .211-.011 1.317-.043 3.328a878.307 878.307 0 0 1-.418 15.942c-.09 2.855-.175 5.265-.246 7.238-.133 4.09-.117 7.234.047 9.441.172 2.207.602 3.723 1.277 4.543.676.813 1.625 1.247 2.848 1.309.953 0 1.957-.559 3.004-1.68a18.49 18.49 0 0 0 2.754-3.82c.777-1.422 1.238-2.547 1.387-3.371ZM374.512 421.215c0 3.062-.477 6.262-1.434 9.598a33.295 33.295 0 0 1-4.23 9.269c-1.871 2.856-4.196 5.188-6.973 6.992-2.785 1.793-6.012 2.696-9.684 2.696-2.105 0-4.039-.38-5.804-1.125-1.766-.747-3.532-1.973-5.293-3.68v17.125c0 .203.031.8.094 1.789.066.984.136 2.668.199 5.05-.34-.136-1.106-.222-2.293-.261a153.853 153.853 0 0 0-4.02-.047c-1.5 0-2.894.05-4.187.152-1.285.102-2.196.254-2.739.465.13-.547.282-1.722.446-3.527.172-1.8.312-3.89.418-6.27.097-2.37.183-4.785.246-7.238.066-2.445.105-4.582.105-6.422 0-2.035.016-4.543.047-7.531.04-2.996.063-6.176.063-9.535 0-3.363-.04-6.684-.11-9.95-.062-3.261-.23-6.234-.508-8.913-.27-2.688-.64-4.817-1.125-6.38-.132-.745-.625-1.1-1.476-1.062a10.786 10.786 0 0 1-2.692-.262v-2.757c.336.074 1.22.132 2.645.171 1.426.032 3.07.012 4.941-.062 1.868-.07 3.72-.188 5.559-.355 1.836-.172 3.297-.465 4.387-.875v9.085c.738-1.293 1.82-2.636 3.246-4.035 1.426-1.394 3.21-2.59 5.36-3.574 2.14-.984 4.57-1.476 7.28-1.476 3.188 0 6.11.937 8.758 2.816 2.657 1.871 4.778 4.504 6.371 7.902 1.602 3.399 2.403 7.477 2.403 12.227Zm-14.16 2.851c.058-1.695.02-3.593-.11-5.699a41.567 41.567 0 0 0-.863-6.222c-.442-2.04-1.121-3.793-2.047-5.25-.914-1.457-2.148-2.329-3.707-2.606-2.105-.336-3.844-.113-5.203.664a14.703 14.703 0 0 0-3.664 3.004c-1.5 1.703-2.488 3.254-2.957 4.648-.473 1.387-.707 2.082-.707 2.082v23.856c0 .953.386 2.062 1.168 3.324.777 1.258 2.289 2.121 4.527 2.59 1.024.277 2.266.23 3.727-.14 1.453-.376 2.894-1.262 4.324-2.649 1.422-1.395 2.648-3.504 3.664-6.328 1.023-2.824 1.637-6.582 1.848-11.274ZM430.148 421.215c0 3.062-.476 6.262-1.433 9.598a33.295 33.295 0 0 1-4.23 9.269c-1.872 2.856-4.196 5.188-6.973 6.992-2.785 1.793-6.012 2.696-9.684 2.696-2.105 0-4.039-.38-5.805-1.125-1.765-.747-3.53-1.973-5.293-3.68v17.125c0 .203.032.8.094 1.789.067.984.137 2.668.2 5.05-.34-.136-1.106-.222-2.294-.261a153.853 153.853 0 0 0-4.02-.047c-1.5 0-2.894.05-4.187.152-1.285.102-2.195.254-2.738.465.13-.547.281-1.722.445-3.527.172-1.8.313-3.89.418-6.27.098-2.37.184-4.785.247-7.238.066-2.445.105-4.582.105-6.422 0-2.035.016-4.543.047-7.531.039-2.996.062-6.176.062-9.535 0-3.363-.039-6.684-.109-9.95-.063-3.261-.23-6.234-.508-8.913-.27-2.688-.64-4.817-1.125-6.38-.133-.745-.625-1.1-1.476-1.062a10.786 10.786 0 0 1-2.692-.262v-2.757c.336.074 1.219.132 2.645.171 1.426.032 3.074.012 4.941-.062 1.867-.07 3.719-.188 5.559-.355 1.836-.172 3.297-.465 4.386-.875v9.085c.739-1.293 1.82-2.636 3.247-4.035 1.425-1.394 3.21-2.59 5.359-3.574 2.14-.984 4.57-1.476 7.281-1.476 3.188 0 6.11.937 8.758 2.816 2.656 1.871 4.777 4.504 6.371 7.902 1.602 3.399 2.402 7.477 2.402 12.227Zm-14.16 2.851c.059-1.695.024-3.593-.11-5.699a41.567 41.567 0 0 0-.862-6.222c-.442-2.04-1.121-3.793-2.047-5.25-.914-1.457-2.149-2.329-3.707-2.606-2.106-.336-3.844-.113-5.203.664a14.703 14.703 0 0 0-3.664 3.004c-1.5 1.703-2.489 3.254-2.957 4.648-.473 1.387-.708 2.082-.708 2.082v23.856c0 .953.387 2.062 1.168 3.324.778 1.258 2.29 2.121 4.528 2.59 1.023.277 2.265.23 3.726-.14 1.453-.376 2.895-1.262 4.325-2.649 1.421-1.395 2.648-3.504 3.664-6.328 1.023-2.824 1.636-6.582 1.847-11.274ZM490.68 424.375c0 5.309-1.11 9.867-3.325 13.676-2.21 3.8-5.32 6.707-9.328 8.715-4.004 2.004-8.718 3.004-14.144 3.004-4.828-.075-9.207-1.06-13.149-2.957-3.941-1.91-7.062-4.836-9.375-8.778-2.308-3.945-3.46-8.902-3.46-14.879 0-4.898 1.066-9.195 3.199-12.89 2.144-3.704 5.187-6.61 9.129-8.72 3.941-2.112 8.593-3.206 13.96-3.276 4.883-.063 9.329.875 13.333 2.816 4.007 1.934 7.207 4.836 9.59 8.719 2.378 3.87 3.57 8.726 3.57 14.57Zm-15.395 2.863c.07-4.629-.215-8.918-.86-12.86-.648-3.944-1.769-7.12-3.37-9.534-1.594-2.41-3.813-3.617-6.664-3.617-3.063 0-5.727 1.937-8.008 5.82-2.278 3.875-3.383 9.957-3.309 18.25.07 3.941.528 7.547 1.371 10.812.852 3.258 2.125 5.817 3.817 7.684 1.703 1.871 3.847 2.805 6.433 2.805 1.282-.063 2.743-.602 4.371-1.618 1.633-1.023 3.059-2.93 4.282-5.714 1.218-2.79 1.867-6.801 1.937-12.028ZM538.262 409.695c-.883 1.016-1.715 1.664-2.492 1.942-.782.27-1.446.468-1.989.601-.207-.808-.77-1.687-1.691-2.636-.914-.954-2.106-1.516-3.57-1.692-1.461-.176-3.102.457-4.926 1.895-.278.195-.793.687-1.54 1.476-.738.781-1.519 1.63-2.34 2.543-.812.914-1.507 1.715-2.093 2.403-.578.675-.863 1.015-.863 1.015v2.094c0 1.387.015 3.219.047 5.5.039 2.277.078 4.797.11 7.547.026 2.75.077 5.504.151 8.254.07 2.754.137 5.25.2 7.5-.336-.14-1.137-.262-2.403-.356a74.26 74.26 0 0 0-4.324-.199 61.32 61.32 0 0 0-4.539.047c-1.387.062-2.352.16-2.895.293.13-.543.282-1.8.446-3.774.172-1.972.328-4.28.46-6.93.145-2.648.282-5.284.419-7.902.129-2.617.199-4.84.199-6.668 0-2.453-.04-5.054-.11-7.808-.058-2.75-.18-5.23-.351-7.438-.168-2.207-.418-3.652-.754-4.328-.277-.746-.875-1.242-1.785-1.48-.918-.246-1.984-.328-3.203-.262v-2.957c.398.074 1.394.18 2.984.309 1.602.136 3.453.238 5.559.308 2.113.063 4.156.047 6.125-.047 1.972-.097 3.465-.328 4.48-.675-.074.484-.16 1.503-.261 3.062-.094 1.563-.192 3.246-.293 5.05-.102 1.802-.192 3.345-.262 4.638-.063 1.293-.13 1.94-.2 1.94 0 0 .25-.39.755-1.17.511-.79 1.144-1.743 1.894-2.864a33.29 33.29 0 0 1 2.34-3.11c1.422-1.828 2.902-3.3 4.433-4.421 1.528-1.13 3.38-2.032 5.555-2.711 2.442-.747 4.496-.594 6.156.46 1.672 1.047 2.625 2.56 2.864 4.532.234 1.969-.532 3.98-2.293 6.02ZM742.633 380.543s-.477.016-1.43.043c-.953.031-2.094.187-3.418.465-1.324.27-2.597.762-3.816 1.476a6.142 6.142 0 0 0-2.649 3.004c-1.5 3.266-3.152 7.055-4.957 11.367a1391.537 1391.537 0 0 0-5.601 13.66c-1.934 4.797-3.848 9.575-5.758 14.34-1.902 4.754-3.68 9.254-5.34 13.504-1.664 4.246-3.105 7.961-4.328 11.153h-2.34l-1.277-2.805a718.814 718.814 0 0 1-3.371-7.531c-1.383-3.16-2.914-6.676-4.586-10.547a430.703 430.703 0 0 1-4.942-12.047 280.312 280.312 0 0 1-4.37-11.828c.062 0-.247.8-.923 2.402-.68 1.594-1.582 3.723-2.71 6.38-1.122 2.648-2.356 5.57-3.712 8.76a884.022 884.022 0 0 1-4.125 9.579 746.685 746.685 0 0 0-3.77 8.781 516.971 516.971 0 0 1-2.757 6.422c-.707 1.621-1.058 2.434-1.058 2.434h-2.34s-.43-1.055-1.278-3.157a959.876 959.876 0 0 0-3.48-8.41c-1.457-3.5-3.07-7.37-4.832-11.613-1.77-4.25-3.57-8.55-5.406-12.906a784.57 784.57 0 0 0-5.246-12.227 739.233 739.233 0 0 0-4.282-9.644c-1.18-2.618-2.011-4.301-2.492-5.051-1.152-1.899-2.562-3.34-4.234-4.328-1.66-.985-4.196-1.512-7.586-1.586v-3.047l1.828.105c1.234.063 2.797.133 4.695.2 1.899.062 3.848.132 5.852.203 2.008.058 3.761.09 5.261.09 1.356 0 3.02-.032 4.989-.09a302.48 302.48 0 0 1 5.804-.156c1.907-.04 3.485-.09 4.739-.153 1.265-.07 1.894-.11 1.894-.11v3.067c-4.218-.07-6.187 1.695-5.91 5.297.129 1.293.652 3.305 1.57 6.024.922 2.71 2.079 5.785 3.465 9.222a653.676 653.676 0 0 0 4.324 10.399c1.497 3.503 2.872 6.714 4.125 9.64a609.953 609.953 0 0 1 2.91 6.82c.82-2.03 1.739-4.421 2.755-7.175a1410.75 1410.75 0 0 0 3.046-8.364 651.25 651.25 0 0 0 2.817-7.898 604.503 604.503 0 0 1 2.078-5.914l.816-2.25a392.106 392.106 0 0 0-2.398-6.313c-.711-1.84-1.234-2.996-1.57-3.48-1.09-1.898-2.196-3.395-3.313-4.484-1.117-1.086-3.039-1.664-5.754-1.723v-3.066s.778.054 2.34.152c1.566.105 3.484.226 5.754.355 2.281.137 4.402.2 6.375.2 1.422 0 3.223-.032 5.402-.09 2.172-.07 4.364-.14 6.574-.203 2.204-.067 4.051-.137 5.54-.2l2.246-.105v2.957c-6.309 0-9.23 1.766-8.758 5.297.133 1.09.59 2.89 1.37 5.406.79 2.516 1.759 5.39 2.911 8.625 1.156 3.227 2.348 6.535 3.57 9.934a494.735 494.735 0 0 0 3.465 9.379 735.635 735.635 0 0 0 2.645 6.882c.68 1.727 1.015 2.559 1.015 2.497.07 0 .45-.95 1.125-2.848.676-1.91 1.559-4.375 2.649-7.395 1.086-3.027 2.238-6.293 3.465-9.797a578.68 578.68 0 0 0 3.414-10.086 334.78 334.78 0 0 0 2.601-8.269c.68-2.281.98-3.719.91-4.328-.062-1.973-.722-3.313-1.988-4.02-1.254-.715-3.676-1.113-7.277-1.187v-2.957s.57.039 1.722.11c1.157.062 2.586.112 4.278.151 1.703.032 3.437.086 5.203.157 1.762.058 3.266.09 4.496.09 1.559 0 3.375-.047 5.45-.153 2.07-.101 3.902-.199 5.495-.293l2.399-.152ZM793.992 433.352c-3.133 5.843-6.562 10.043-10.297 12.597-3.734 2.547-8.558 3.82-14.468 3.82-4.149 0-7.985-.984-11.516-2.957-3.531-1.972-6.367-4.773-8.512-8.41-2.144-3.64-3.215-8.011-3.215-13.105 0-4.824.746-8.953 2.246-12.383 1.497-3.437 3.5-6.262 6.02-8.469 2.512-2.207 5.313-3.82 8.402-4.836a27.689 27.689 0 0 1 9.422-1.433c3.332 0 6.528.664 9.574 1.988 3.055 1.324 5.586 3.52 7.59 6.574 2.008 3.063 3.082 7.309 3.215 12.739h-32.91c.133 4.765.773 8.625 1.926 11.582 1.156 2.957 2.62 5.214 4.386 6.773 1.774 1.566 3.61 2.617 5.512 3.16 1.895.547 3.625.817 5.188.817 2.511 0 4.699-.61 6.57-1.836 1.879-1.22 3.48-2.664 4.805-4.325 1.324-1.671 2.36-3.152 3.11-4.437Zm-14.683-18.25c0-2.176-.274-4.282-.817-6.313-.547-2.043-1.379-3.715-2.492-5.008-1.121-1.293-2.563-1.941-4.328-1.941-3.059 0-5.57 1.039-7.54 3.113-1.972 2.074-3.398 5.457-4.28 10.149ZM847.89 422.648c0 2.372-.445 5.075-1.324 8.102-.886 3.031-2.332 5.938-4.343 8.715-2 2.785-4.649 5.078-7.942 6.887-3.293 1.793-7.383 2.695-12.265 2.695-1.782 0-4.028-.195-6.743-.57a88.394 88.394 0 0 1-7.836-1.418c-2.519-.575-4.488-1.133-5.91-1.68.203-2.102.371-4.496.508-7.176.13-2.687.25-5.344.352-7.96.101-2.622.156-4.845.156-6.684V409.805c0-3.059-.016-6.168-.047-9.336-.031-3.16-.086-6.117-.156-8.871-.07-2.746-.16-5.043-.262-6.883-.101-1.836-.223-2.926-.351-3.266-.473-1.144-1.97-1.722-4.48-1.722v-3.067c.41.074 1.378.125 2.91.152 1.527.032 3.277.016 5.25-.042 1.968-.07 3.866-.211 5.695-.418 1.836-.204 3.296-.477 4.386-.817-.21.887-.379 2.48-.508 4.79a173.25 173.25 0 0 0-.261 7.808c-.032 2.89-.07 5.707-.11 8.457a622.806 622.806 0 0 0-.047 6.836v2.804c.543-.882 1.41-1.933 2.602-3.156 1.191-1.234 2.668-2.32 4.434-3.265 1.761-.957 3.8-1.434 6.113-1.434 4.555-.066 8.324 1.016 11.312 3.266 2.985 2.242 5.227 5.199 6.727 8.87 1.496 3.665 2.207 7.712 2.14 12.137Zm-14.269 4.067c0-3.735-.324-7.215-.973-10.442-.636-3.234-1.753-5.855-3.355-7.855-1.598-2.004-3.793-3.004-6.57-3.004-1.164 0-2.387.324-3.68.969-1.285.648-2.367 1.586-3.246 2.805-.887 1.222-1.324 2.753-1.324 4.59l-.11 27.523c0 1.222.66 2.242 1.985 3.062 1.324.813 2.836 1.219 4.543 1.219 3.261 0 5.804-.988 7.632-2.957 1.836-1.973 3.145-4.414 3.926-7.332.778-2.926 1.172-5.785 1.172-8.578ZM967.11 412.96c0 2.856-.391 5.88-1.169 9.071-.78 3.196-2.09 6.324-3.925 9.38-1.84 3.062-4.325 5.85-7.453 8.362-3.118 2.52-7.024 4.524-11.711 6.024-4.68 1.488-10.286 2.234-16.809 2.234h-30.156l-.11-3.066c1.973-.063 3.79-.363 5.45-.91 1.671-.543 3.05-1.461 4.125-2.754.41-.473.75-1.64 1.02-3.512.273-1.867.464-4.059.566-6.578.101-2.516.171-5.008.203-7.484.035-2.485.058-4.66.058-6.532V410.004c0-1.973-.039-4.332-.105-7.086-.074-2.746-.18-5.5-.309-8.254-.137-2.762-.32-5.176-.555-7.238-.238-2.07-.562-3.38-.968-3.926-.75-1.086-1.739-1.82-2.957-2.188a13.36 13.36 0 0 0-3.617-.617 95.685 95.685 0 0 0-3-.062v-3.266l28.937.11c8.484 0 15.922 1.308 22.305 3.925 6.39 2.621 11.351 6.547 14.886 11.786 3.528 5.226 5.293 11.82 5.293 19.773Zm-17.317.403c0-4.414-.324-8.625-.969-12.633-.648-4.011-2.027-7.484-4.125-10.41-.547-.808-1.48-1.879-2.804-3.203-1.325-1.332-3.293-2.539-5.91-3.617-2.618-1.086-6.169-1.633-10.653-1.633-1.293 0-2.398-.015-3.324-.047-.914-.039-1.438.008-1.57.137l-.047 3.375a758.46 758.46 0 0 0-.043 8.918c0 3.707.015 7.77.043 12.18.03 4.418.062 8.816.093 13.199.04 4.387.078 8.433.11 12.137.027 3.707.058 6.683.09 8.933.039 2.238.062 3.356.062 3.356-.074-.13.57-.16 1.926-.09l4.293.183c.203 0 .898-.046 2.078-.14 1.187-.098 2.652-.422 4.387-.969 1.73-.543 3.547-1.426 5.449-2.648 1.91-1.23 3.68-2.98 5.312-5.254 1.63-2.278 2.97-5.18 4.016-8.715 1.055-3.543 1.586-7.895 1.586-13.059ZM1021.941 433.352c-3.132 5.843-6.566 10.043-10.296 12.597-3.739 2.547-8.56 3.82-14.47 3.82-4.148 0-7.987-.984-11.515-2.957-3.531-1.972-6.367-4.773-8.512-8.41-2.148-3.64-3.218-8.011-3.218-13.105 0-4.824.746-8.953 2.25-12.383 1.496-3.437 3.5-6.262 6.015-8.469 2.516-2.207 5.317-3.82 8.407-4.836a27.689 27.689 0 0 1 9.421-1.433c3.332 0 6.524.664 9.575 1.988 3.054 1.324 5.586 3.52 7.586 6.574 2.011 3.063 3.082 7.309 3.218 12.739h-32.91c.13 4.765.774 8.625 1.926 11.582 1.156 2.957 2.617 5.214 4.387 6.773 1.773 1.566 3.61 2.617 5.508 3.16 1.898.547 3.625.817 5.187.817 2.516 0 4.703-.61 6.574-1.836 1.88-1.22 3.48-2.664 4.801-4.325 1.324-1.671 2.36-3.152 3.11-4.437Zm-14.683-18.25c0-2.176-.274-4.282-.817-6.313-.546-2.043-1.379-3.715-2.496-5.008-1.117-1.293-2.562-1.941-4.324-1.941-3.058 0-5.57 1.039-7.543 3.113-1.969 2.074-3.398 5.457-4.277 10.149ZM1080.426 405.723c.066 2.242-.461 4.636-1.586 7.191-1.121 2.55-2.563 5.2-4.328 7.95a662.103 662.103 0 0 0-5.492 8.714c-2.383 3.813-4.22 6.887-5.512 9.227-1.293 2.34-2.227 4.226-2.801 5.652a62.635 62.635 0 0 0-1.371 3.68c-.277-.14-.922-.23-1.938-.262-1.02-.031-2.14-.047-3.37-.047-1.227 0-2.329.016-3.313.047-.985.031-1.582.086-1.785.156 0 0-.309-.883-.922-2.652-.61-1.762-1.403-4.086-2.387-6.977a668.202 668.202 0 0 0-3.262-9.332 1419.952 1419.952 0 0 0-3.511-9.793 370.036 370.036 0 0 0-3.172-8.457c-.946-2.453-1.653-4.152-2.121-5.097-.754-1.5-1.672-2.5-2.758-3.004-1.09-.512-2.16-.785-3.215-.817a76.867 76.867 0 0 0-2.805-.062v-3.774c.278.075 1.078.18 2.403.309 1.324.137 2.918.273 4.789.418 1.863.133 3.785.238 5.754.309 1.972.058 3.789.058 5.449 0 1.672-.07 2.95-.25 3.836-.524.398 1.766 1.054 4.23 1.969 7.39a319.104 319.104 0 0 0 3.261 10.458 619.319 619.319 0 0 1 3.727 11.629 1761.52 1761.52 0 0 1 3.37 10.996c2.513-5.367 4.45-10.785 5.806-16.25 1.351-5.469 2.066-10.149 2.136-14.028.07-1.695-.183-3.086-.77-4.175-.573-1.086-1.132-1.903-1.675-2.45-.547-.543-.816-.816-.816-.816.07 0 .277-.234.617-.707.336-.48.926-.973 1.77-1.48.847-.512 2.023-.805 3.523-.875 2.851-.133 5.297.242 7.328 1.12 2.039.887 3.098 2.997 3.172 6.333ZM1133.93 433.352c-3.133 5.843-6.567 10.043-10.301 12.597-3.734 2.547-8.559 3.82-14.469 3.82-4.148 0-7.984-.984-11.512-2.957-3.535-1.972-6.37-4.773-8.511-8.41-2.149-3.64-3.219-8.011-3.219-13.105 0-4.824.746-8.953 2.246-12.383 1.5-3.437 3.504-6.262 6.02-8.469 2.511-2.207 5.316-3.82 8.406-4.836a27.681 27.681 0 0 1 9.418-1.433c3.332 0 6.527.664 9.574 1.988 3.059 1.324 5.59 3.52 7.59 6.574 2.008 3.063 3.082 7.309 3.219 12.739h-32.91c.128 4.765.773 8.625 1.921 11.582 1.16 2.957 2.621 5.214 4.387 6.773 1.774 1.566 3.61 2.617 5.512 3.16 1.898.547 3.625.817 5.187.817 2.512 0 4.703-.61 6.574-1.836 1.876-1.22 3.477-2.664 4.801-4.325 1.324-1.671 2.36-3.152 3.11-4.437Zm-14.688-18.25c0-2.176-.273-4.282-.812-6.313-.547-2.043-1.38-3.715-2.496-5.008-1.121-1.293-2.563-1.941-4.325-1.941-3.058 0-5.574 1.039-7.543 3.113-1.968 2.074-3.398 5.457-4.28 10.149ZM1169.477 435.492c-1.43 4.004-3.293 7.371-5.606 10.09-2.309 2.719-5.633 4.043-9.973 3.973-2.515-.063-4.57-.739-6.171-2.035-1.594-1.293-2.493-3.094-2.696-5.403-.277-2.312-.453-5.23-.523-8.765a478.662 478.662 0 0 1-.047-11.52c.039-4.148.094-8.348.156-12.598.07-4.25.106-8.273.106-12.074 0-3.808-.07-7.14-.215-9.996-.133-2.851-.399-4.93-.801-6.223-.207-.746-.7-1.238-1.477-1.476-.78-.238-1.785-.356-3.015-.356v-2.957c.406.075 1.375.16 2.906.262 1.531.094 3.313.16 5.344.2 2.039.03 4.008-.02 5.91-.153 1.91-.133 3.406-.375 4.496-.727-.137 1.032-.289 2.801-.465 5.317-.176 2.515-.312 5.523-.414 9.023-.094 3.492-.191 7.192-.293 11.106-.101 3.91-.191 7.789-.262 11.629-.062 3.84-.113 7.375-.152 10.609-.031 3.227-.047 5.91-.047 8.055v3.82c.203 2.71.387 4.559.555 5.543.172.988 1.11 1.555 2.8 1.695 1.423.133 2.684-.578 3.77-2.14 1.086-1.57 2.242-3.715 3.465-6.438ZM1227.367 424.375c0 5.309-1.11 9.867-3.324 13.676-2.211 3.8-5.32 6.707-9.328 8.715-4.004 2.004-8.723 3.004-14.149 3.004-4.824-.075-9.203-1.06-13.144-2.957-3.942-1.91-7.067-4.836-9.375-8.778-2.309-3.945-3.461-8.902-3.461-14.879 0-4.898 1.066-9.195 3.2-12.89 2.144-3.704 5.187-6.61 9.128-8.72 3.941-2.112 8.594-3.206 13.961-3.276 4.883-.063 9.328.875 13.332 2.816 4.008 1.934 7.207 4.836 9.59 8.719 2.379 3.87 3.57 8.726 3.57 14.57Zm-15.394 2.863c.07-4.629-.215-8.918-.86-12.86-.648-3.944-1.77-7.12-3.37-9.534-1.595-2.41-3.817-3.617-6.669-3.617-3.058 0-5.722 1.937-8.004 5.82-2.277 3.875-3.382 9.957-3.308 18.25.07 3.941.527 7.547 1.37 10.812.852 3.258 2.126 5.817 3.817 7.684 1.703 1.871 3.848 2.805 6.434 2.805 1.281-.063 2.742-.602 4.37-1.618 1.634-1.023 3.06-2.93 4.282-5.714 1.219-2.79 1.867-6.801 1.938-12.028ZM1283 421.215c0 3.062-.477 6.262-1.43 9.598a33.417 33.417 0 0 1-4.234 9.269c-1.871 2.856-4.195 5.188-6.973 6.992-2.781 1.793-6.011 2.696-9.683 2.696-2.106 0-4.04-.38-5.801-1.125-1.77-.747-3.535-1.973-5.297-3.68v17.125c0 .203.031.8.094 1.789.066.984.137 2.668.199 5.05-.34-.136-1.105-.222-2.293-.261a153.853 153.853 0 0 0-4.02-.047c-1.5 0-2.894.05-4.187.152-1.285.102-2.195.254-2.738.465.129-.547.281-1.722.445-3.527.176-1.8.313-3.89.418-6.27.098-2.37.184-4.785.246-7.238.066-2.445.106-4.582.106-6.422 0-2.035.015-4.543.046-7.531.04-2.996.063-6.176.063-9.535 0-3.363-.04-6.684-.11-9.95-.058-3.261-.23-6.234-.507-8.913-.27-2.688-.64-4.817-1.121-6.38-.137-.745-.63-1.1-1.48-1.062-.84.031-1.74-.055-2.692-.262v-2.757c.336.074 1.219.132 2.644.171 1.426.032 3.075.012 4.942-.062 1.867-.07 3.718-.188 5.558-.355 1.836-.172 3.297-.465 4.387-.875v9.085c.738-1.293 1.82-2.636 3.246-4.035 1.426-1.394 3.211-2.59 5.36-3.574 2.144-.984 4.57-1.476 7.28-1.476 3.188 0 6.11.937 8.759 2.816 2.656 1.871 4.777 4.504 6.37 7.902 1.602 3.399 2.403 7.477 2.403 12.227Zm-14.16 2.851c.058-1.695.023-3.593-.11-5.699a41.567 41.567 0 0 0-.863-6.222c-.441-2.04-1.12-3.793-2.047-5.25-.914-1.457-2.148-2.329-3.707-2.606-2.105-.336-3.843-.113-5.203.664a14.703 14.703 0 0 0-3.664 3.004c-1.5 1.703-2.488 3.254-2.957 4.648-.473 1.387-.707 2.082-.707 2.082v23.856c0 .953.39 2.062 1.168 3.324.777 1.258 2.29 2.121 4.527 2.59 1.024.277 2.266.23 3.727-.14 1.453-.376 2.894-1.262 4.324-2.649 1.422-1.395 2.649-3.504 3.664-6.328 1.024-2.824 1.637-6.582 1.848-11.274ZM1337.422 433.352c-3.133 5.843-6.567 10.043-10.3 12.597-3.735 2.547-8.556 3.82-14.47 3.82-4.148 0-7.984-.984-11.511-2.957-3.536-1.972-6.371-4.773-8.512-8.41-2.149-3.64-3.219-8.011-3.219-13.105 0-4.824.746-8.953 2.246-12.383 1.5-3.437 3.504-6.262 6.02-8.469 2.512-2.207 5.316-3.82 8.406-4.836a27.681 27.681 0 0 1 9.418-1.433c3.332 0 6.527.664 9.574 1.988 3.059 1.324 5.59 3.52 7.59 6.574 2.008 3.063 3.082 7.309 3.219 12.739h-32.91c.129 4.765.773 8.625 1.922 11.582 1.16 2.957 2.62 5.214 4.386 6.773 1.774 1.566 3.61 2.617 5.512 3.16 1.898.547 3.625.817 5.187.817 2.512 0 4.704-.61 6.575-1.836 1.875-1.22 3.476-2.664 4.8-4.325 1.325-1.671 2.36-3.152 3.11-4.437Zm-14.688-18.25c0-2.176-.273-4.282-.812-6.313-.547-2.043-1.379-3.715-2.496-5.008-1.117-1.293-2.563-1.941-4.324-1.941-3.059 0-5.575 1.039-7.543 3.113-1.97 2.074-3.399 5.457-4.278 10.149ZM1405.695 433.55c-1.367 4.153-2.933 7.348-4.695 9.598-1.77 2.239-3.52 3.813-5.25 4.727-1.734.914-3.25 1.438-4.543 1.57-1.285.145-2.164.215-2.645.215-.886 0-2.105-.242-3.664-.723-1.562-.472-2.988-1.757-4.28-3.863-1.016-1.765-1.563-4.754-1.63-8.965-.074-4.218.16-9.289.707-15.203.407-4.41.446-7.672.106-9.777-.336-2.113-.844-3.527-1.524-4.234-.675-.72-1.359-1.18-2.047-1.387-1.562-.473-3.039-.418-4.433.168a11.409 11.409 0 0 0-3.707 2.496 24.65 24.65 0 0 0-2.863 3.418c-.813 1.183-1.426 2.2-1.832 3.05l-.618 1.278c-.34 6.184-.406 11.89-.199 17.125.203 5.238.371 10.27.508 15.094-.399-.203-1.27-.371-2.602-.508a41.05 41.05 0 0 0-4.324-.215c-1.562 0-3.004.055-4.328.152-1.32.106-2.258.258-2.8.465.132-.543.28-1.781.445-3.715.175-1.937.343-4.218.511-6.836.172-2.617.309-5.238.414-7.855.102-2.617.188-4.844.262-6.684.063-2.441.04-4.953-.062-7.53a112.847 112.847 0 0 0-.461-6.888c-.196-2.007-.43-3.355-.707-4.03-.27-.75-.95-1.259-2.032-1.528-1.09-.277-2.312-.414-3.664-.414v-3.25c.336.062 1.352.164 3.047.308 1.7.133 3.672.215 5.91.246 2.246.032 4.403-.02 6.465-.156 2.07-.129 3.621-.402 4.649-.816a39.971 39.971 0 0 0-.875 6.594c-.106 2.136-.121 3.675-.047 4.62.336-1.085 1.031-2.363 2.078-3.82 1.055-1.457 2.45-2.851 4.187-4.175 1.73-1.325 3.785-2.34 6.157-3.047 2.379-.72 5.03-.91 7.957-.57 1.968.206 3.718.765 5.25 1.68 1.527.913 2.73 2.355 3.617 4.327.879 1.969 1.355 4.676 1.414 8.113.07 3.434-.363 7.793-1.309 13.094-.75 4.219-.976 7.469-.676 9.746.31 2.274.852 3.817 1.633 4.637.79.813 1.485 1.219 2.094 1.219 1.082 0 2.055-.406 2.906-1.219a13.298 13.298 0 0 0 2.235-2.863 25.257 25.257 0 0 0 1.586-3.114c.406-.984.648-1.675.722-2.078Zm0 0"/></svg>
